<svg width="323" height="151" viewBox="0 0 323 151" fill="none" xmlns="http://www.w3.org/2000/svg">
<g clip-path="url(#clip0_205_22)">
<path d="M293.89 89.128C293.336 89.128 292.706 89.5227 292.002 90.312C291.32 91.08 290.616 92.136 289.89 93.48C289.186 94.8027 288.514 96.296 287.874 97.96C287.256 99.624 286.733 101.352 286.306 103.144L286.85 99.688C287.768 96.8933 288.653 94.6533 289.506 92.968C290.381 91.2613 291.245 90.024 292.098 89.256C292.973 88.488 293.88 88.104 294.818 88.104C295.821 88.104 296.621 88.4773 297.218 89.224C297.837 89.9707 298.146 91.1013 298.146 92.616C298.146 93.576 298.008 94.632 297.73 95.784C297.474 96.936 297.08 98.0773 296.546 99.208C296.034 100.339 295.394 101.384 294.626 102.344C293.88 103.283 293.016 104.04 292.034 104.616C291.053 105.171 289.965 105.448 288.77 105.448C288.13 105.448 287.554 105.256 287.042 104.872C286.552 104.488 286.221 103.933 286.05 103.208L286.306 102.568C286.605 103.357 286.946 103.912 287.33 104.232C287.736 104.552 288.205 104.712 288.738 104.712C289.464 104.712 290.157 104.435 290.818 103.88C291.48 103.304 292.088 102.547 292.642 101.608C293.197 100.669 293.677 99.6347 294.082 98.504C294.509 97.352 294.829 96.2107 295.042 95.08C295.277 93.928 295.394 92.872 295.394 91.912C295.394 90.9733 295.256 90.28 294.978 89.832C294.722 89.3627 294.36 89.128 293.89 89.128ZM286.434 103.016C285.922 103.421 285.41 103.837 284.898 104.264C284.386 104.669 283.874 105.085 283.362 105.512L282.882 105.288C283.032 104.989 283.149 104.691 283.234 104.392C283.341 104.072 283.426 103.752 283.49 103.432L289.09 83.656C289.261 82.9307 289.229 82.3973 288.994 82.056C288.76 81.7147 288.12 81.544 287.074 81.544L287.234 80.872C288.408 80.8507 289.442 80.7333 290.338 80.52C291.234 80.2853 292.077 79.9653 292.866 79.56L286.434 103.016ZM308.415 103.72L306.271 106.056L303.839 91.336C303.733 90.6747 303.605 90.216 303.455 89.96C303.306 89.704 303.093 89.576 302.815 89.576C302.581 89.576 302.314 89.768 302.015 90.152C301.717 90.5147 301.354 91.304 300.927 92.52L300.511 93.704H299.903L300.703 91.368C301.151 90.0667 301.706 89.2027 302.367 88.776C303.029 88.328 303.701 88.104 304.383 88.104C305.045 88.104 305.557 88.3173 305.919 88.744C306.282 89.1493 306.538 89.9173 306.687 91.048L308.415 103.72ZM301.407 109.512C302.325 109.021 303.295 108.349 304.319 107.496C305.365 106.664 306.442 105.533 307.551 104.104C308.81 102.504 309.951 100.712 310.975 98.728C312.021 96.7227 312.746 94.7067 313.151 92.68C312.81 92.488 312.437 92.2533 312.031 91.976C311.647 91.6773 311.327 91.336 311.071 90.952C310.815 90.5467 310.698 90.0987 310.719 89.608C310.762 89.1173 310.933 88.744 311.231 88.488C311.53 88.232 311.903 88.104 312.351 88.104C312.927 88.104 313.343 88.328 313.599 88.776C313.877 89.2027 314.015 89.8427 314.015 90.696C314.015 91.784 313.834 92.9573 313.471 94.216C313.109 95.4533 312.618 96.712 311.999 97.992C311.402 99.272 310.73 100.509 309.983 101.704C309.237 102.877 308.479 103.944 307.711 104.904C307.37 105.331 306.901 105.864 306.303 106.504C305.706 107.144 304.991 107.795 304.159 108.456C303.349 109.139 302.431 109.725 301.407 110.216C300.767 110.515 300.213 110.717 299.743 110.824C299.295 110.952 298.922 111.016 298.623 111.016C298.197 111.016 297.823 110.899 297.503 110.664C297.183 110.451 297.023 110.131 297.023 109.704C297.023 109.235 297.205 108.872 297.567 108.616C297.909 108.381 298.303 108.264 298.751 108.264C299.242 108.264 299.701 108.392 300.127 108.648C300.575 108.904 301.002 109.192 301.407 109.512Z" fill="#1E1E1E"/>
<path d="M12.92 119.48L22.68 144.64C23.08 145.653 23.5333 146.333 24.04 146.68C24.5467 147 25.0133 147.173 25.44 147.2V148C24.9067 147.947 24.2533 147.92 23.48 147.92C22.7067 147.893 21.9333 147.88 21.16 147.88C20.12 147.88 19.1467 147.893 18.24 147.92C17.3333 147.92 16.6 147.947 16.04 148V147.2C17.4 147.147 18.2667 146.92 18.64 146.52C19.0133 146.093 18.9333 145.2 18.4 143.84L10.96 123.96L11.6 123.44L4.64 141.52C4.21333 142.587 3.96 143.493 3.88 144.24C3.8 144.96 3.86667 145.533 4.08 145.96C4.32 146.387 4.70667 146.693 5.24 146.88C5.8 147.067 6.49333 147.173 7.32 147.2V148C6.57333 147.947 5.78667 147.92 4.96 147.92C4.16 147.893 3.41333 147.88 2.72 147.88C2.05333 147.88 1.48 147.893 1 147.92C0.546667 147.92 0.12 147.947 -0.28 148V147.2C0.253333 147.067 0.8 146.76 1.36 146.28C1.92 145.773 2.42667 144.92 2.88 143.72L12.28 119.48C12.3867 119.48 12.4933 119.48 12.6 119.48C12.7067 119.48 12.8133 119.48 12.92 119.48ZM17.8 136.48V137.28H5.88L6.28 136.48H17.8ZM33.5153 126.84C34.582 126.84 35.4886 127.013 36.2353 127.36C36.982 127.707 37.5286 128.027 37.8753 128.32C38.7553 129.04 39.2886 128.56 39.4753 126.88H40.3953C40.342 127.627 40.302 128.52 40.2753 129.56C40.2486 130.573 40.2353 131.947 40.2353 133.68H39.3153C39.1553 132.693 38.8753 131.733 38.4753 130.8C38.102 129.867 37.542 129.107 36.7953 128.52C36.0486 127.907 35.0753 127.6 33.8753 127.6C32.942 127.6 32.1553 127.867 31.5153 128.4C30.902 128.907 30.5953 129.667 30.5953 130.68C30.5953 131.48 30.8353 132.173 31.3153 132.76C31.7953 133.32 32.422 133.853 33.1953 134.36C33.9686 134.84 34.8086 135.373 35.7153 135.96C36.7286 136.6 37.6486 137.253 38.4753 137.92C39.302 138.587 39.9553 139.32 40.4353 140.12C40.942 140.92 41.1953 141.867 41.1953 142.96C41.1953 144.187 40.8753 145.213 40.2353 146.04C39.5953 146.867 38.7553 147.493 37.7153 147.92C36.702 148.347 35.582 148.56 34.3553 148.56C33.7686 148.56 33.2086 148.507 32.6753 148.4C32.1686 148.32 31.6753 148.187 31.1953 148C30.9286 147.867 30.6486 147.707 30.3553 147.52C30.0886 147.333 29.822 147.133 29.5553 146.92C29.2886 146.707 29.0486 146.72 28.8353 146.96C28.622 147.173 28.462 147.613 28.3553 148.28H27.4353C27.4886 147.427 27.5286 146.387 27.5553 145.16C27.582 143.933 27.5953 142.307 27.5953 140.28H28.5153C28.702 141.773 28.9686 143.08 29.3153 144.2C29.662 145.32 30.2086 146.2 30.9553 146.84C31.702 147.453 32.742 147.76 34.0753 147.76C34.6086 147.76 35.142 147.64 35.6753 147.4C36.2353 147.16 36.702 146.76 37.0753 146.2C37.4486 145.64 37.6353 144.893 37.6353 143.96C37.6353 142.787 37.2086 141.827 36.3553 141.08C35.502 140.333 34.422 139.547 33.1153 138.72C32.1553 138.107 31.2486 137.493 30.3953 136.88C29.5686 136.267 28.8886 135.573 28.3553 134.8C27.8486 134.027 27.5953 133.093 27.5953 132C27.5953 130.8 27.862 129.827 28.3953 129.08C28.9553 128.307 29.6886 127.747 30.5953 127.4C31.502 127.027 32.4753 126.84 33.5153 126.84ZM50.6859 120.76V127.44H56.6059V128.24H50.6859V143.72C50.6859 144.973 50.9126 145.853 51.3659 146.36C51.8193 146.867 52.4459 147.12 53.2459 147.12C54.0459 147.12 54.7393 146.8 55.3259 146.16C55.9126 145.493 56.4193 144.387 56.8459 142.84L57.6459 143.04C57.3793 144.587 56.8459 145.893 56.0459 146.96C55.2726 148.027 54.0726 148.56 52.4459 148.56C51.5393 148.56 50.7926 148.44 50.2059 148.2C49.6193 147.987 49.0993 147.667 48.6459 147.24C48.0593 146.627 47.6459 145.893 47.4059 145.04C47.1926 144.187 47.0859 143.053 47.0859 141.64V128.24H43.2459V127.44H47.0859V121.32C47.7526 121.293 48.3926 121.24 49.0059 121.16C49.6193 121.08 50.1793 120.947 50.6859 120.76ZM68.1866 126.84C69.8932 126.84 71.4266 127.213 72.7866 127.96C74.1466 128.707 75.2266 129.88 76.0266 131.48C76.8532 133.08 77.2666 135.16 77.2666 137.72C77.2666 140.28 76.8532 142.36 76.0266 143.96C75.2266 145.533 74.1466 146.693 72.7866 147.44C71.4266 148.187 69.8932 148.56 68.1866 148.56C66.5066 148.56 64.9732 148.187 63.5866 147.44C62.2266 146.693 61.1332 145.533 60.3066 143.96C59.5066 142.36 59.1066 140.28 59.1066 137.72C59.1066 135.16 59.5066 133.08 60.3066 131.48C61.1332 129.88 62.2266 128.707 63.5866 127.96C64.9732 127.213 66.5066 126.84 68.1866 126.84ZM68.1866 127.64C66.6666 127.64 65.4132 128.427 64.4266 130C63.4666 131.573 62.9866 134.147 62.9866 137.72C62.9866 141.293 63.4666 143.867 64.4266 145.44C65.4132 146.987 66.6666 147.76 68.1866 147.76C69.7066 147.76 70.9466 146.987 71.9066 145.44C72.8932 143.867 73.3866 141.293 73.3866 137.72C73.3866 134.147 72.8932 131.573 71.9066 130C70.9466 128.427 69.7066 127.64 68.1866 127.64ZM93.7406 126.84C94.754 126.84 95.594 126.973 96.2606 127.24C96.954 127.507 97.5273 127.88 97.9806 128.36C98.4873 128.893 98.8473 129.56 99.0606 130.36C99.274 131.16 99.3806 132.24 99.3806 133.6V144.28C99.3806 145.4 99.6073 146.16 100.061 146.56C100.541 146.96 101.327 147.16 102.421 147.16V148C101.967 147.973 101.274 147.947 100.341 147.92C99.4073 147.867 98.5006 147.84 97.6206 147.84C96.7406 147.84 95.874 147.867 95.0206 147.92C94.194 147.947 93.5673 147.973 93.1406 148V147.16C94.1006 147.16 94.7806 146.96 95.1806 146.56C95.5806 146.16 95.7806 145.4 95.7806 144.28V132.72C95.7806 131.893 95.714 131.133 95.5806 130.44C95.4473 129.747 95.1406 129.187 94.6606 128.76C94.2073 128.333 93.5006 128.12 92.5406 128.12C91.4206 128.12 90.434 128.44 89.5806 129.08C88.754 129.72 88.1006 130.6 87.6206 131.72C87.1673 132.813 86.9406 134.04 86.9406 135.4V144.28C86.9406 145.4 87.1406 146.16 87.5406 146.56C87.9406 146.96 88.6206 147.16 89.5806 147.16V148C89.154 147.973 88.514 147.947 87.6606 147.92C86.834 147.867 85.9806 147.84 85.1006 147.84C84.2206 147.84 83.314 147.867 82.3806 147.92C81.4473 147.947 80.754 147.973 80.3006 148V147.16C81.394 147.16 82.1673 146.96 82.6206 146.56C83.1006 146.16 83.3406 145.4 83.3406 144.28V131.76C83.3406 130.56 83.1273 129.68 82.7006 129.12C82.274 128.533 81.474 128.24 80.3006 128.24V127.4C81.154 127.48 81.9806 127.52 82.7806 127.52C83.554 127.52 84.2873 127.48 84.9806 127.4C85.7006 127.293 86.354 127.147 86.9406 126.96V131.68C87.634 129.867 88.594 128.613 89.8206 127.92C91.074 127.2 92.3806 126.84 93.7406 126.84ZM111.328 126.84C112.394 126.84 113.301 127.013 114.048 127.36C114.794 127.707 115.341 128.027 115.688 128.32C116.568 129.04 117.101 128.56 117.288 126.88H118.208C118.154 127.627 118.114 128.52 118.088 129.56C118.061 130.573 118.048 131.947 118.048 133.68H117.128C116.968 132.693 116.688 131.733 116.288 130.8C115.914 129.867 115.354 129.107 114.608 128.52C113.861 127.907 112.888 127.6 111.688 127.6C110.754 127.6 109.968 127.867 109.328 128.4C108.714 128.907 108.408 129.667 108.408 130.68C108.408 131.48 108.648 132.173 109.128 132.76C109.608 133.32 110.234 133.853 111.008 134.36C111.781 134.84 112.621 135.373 113.528 135.96C114.541 136.6 115.461 137.253 116.288 137.92C117.114 138.587 117.768 139.32 118.248 140.12C118.754 140.92 119.008 141.867 119.008 142.96C119.008 144.187 118.688 145.213 118.048 146.04C117.408 146.867 116.568 147.493 115.528 147.92C114.514 148.347 113.394 148.56 112.168 148.56C111.581 148.56 111.021 148.507 110.488 148.4C109.981 148.32 109.488 148.187 109.008 148C108.741 147.867 108.461 147.707 108.168 147.52C107.901 147.333 107.634 147.133 107.368 146.92C107.101 146.707 106.861 146.72 106.648 146.96C106.434 147.173 106.274 147.613 106.168 148.28H105.248C105.301 147.427 105.341 146.387 105.368 145.16C105.394 143.933 105.408 142.307 105.408 140.28H106.328C106.514 141.773 106.781 143.08 107.128 144.2C107.474 145.32 108.021 146.2 108.768 146.84C109.514 147.453 110.554 147.76 111.888 147.76C112.421 147.76 112.954 147.64 113.488 147.4C114.048 147.16 114.514 146.76 114.888 146.2C115.261 145.64 115.448 144.893 115.448 143.96C115.448 142.787 115.021 141.827 114.168 141.08C113.314 140.333 112.234 139.547 110.928 138.72C109.968 138.107 109.061 137.493 108.208 136.88C107.381 136.267 106.701 135.573 106.168 134.8C105.661 134.027 105.408 133.093 105.408 132C105.408 130.8 105.674 129.827 106.208 129.08C106.768 128.307 107.501 127.747 108.408 127.4C109.314 127.027 110.288 126.84 111.328 126.84ZM141.819 126.84C143.526 126.84 145.059 127.213 146.419 127.96C147.779 128.707 148.859 129.88 149.659 131.48C150.486 133.08 150.899 135.16 150.899 137.72C150.899 140.28 150.486 142.36 149.659 143.96C148.859 145.533 147.779 146.693 146.419 147.44C145.059 148.187 143.526 148.56 141.819 148.56C140.139 148.56 138.606 148.187 137.219 147.44C135.859 146.693 134.766 145.533 133.939 143.96C133.139 142.36 132.739 140.28 132.739 137.72C132.739 135.16 133.139 133.08 133.939 131.48C134.766 129.88 135.859 128.707 137.219 127.96C138.606 127.213 140.139 126.84 141.819 126.84ZM141.819 127.64C140.299 127.64 139.046 128.427 138.059 130C137.099 131.573 136.619 134.147 136.619 137.72C136.619 141.293 137.099 143.867 138.059 145.44C139.046 146.987 140.299 147.76 141.819 147.76C143.339 147.76 144.579 146.987 145.539 145.44C146.526 143.867 147.019 141.293 147.019 137.72C147.019 134.147 146.526 131.573 145.539 130C144.579 128.427 143.339 127.64 141.819 127.64ZM163.813 116.72C164.56 116.72 165.213 116.827 165.773 117.04C166.36 117.227 166.867 117.48 167.293 117.8C167.693 118.12 168 118.493 168.213 118.92C168.427 119.347 168.533 119.8 168.533 120.28C168.533 120.893 168.333 121.4 167.933 121.8C167.533 122.2 167.027 122.4 166.413 122.4C165.827 122.4 165.307 122.213 164.853 121.84C164.427 121.44 164.213 120.907 164.213 120.24C164.213 119.68 164.36 119.227 164.653 118.88C164.973 118.533 165.387 118.307 165.893 118.2C165.813 117.96 165.6 117.76 165.253 117.6C164.933 117.413 164.493 117.32 163.933 117.32C163.32 117.32 162.787 117.453 162.333 117.72C161.907 117.987 161.573 118.347 161.333 118.8C161.013 119.36 160.813 120.2 160.733 121.32C160.653 122.413 160.613 124.107 160.613 126.4V127.44H164.893V128.24H160.613V143.88C160.613 145.187 160.987 146.067 161.733 146.52C162.507 146.947 163.547 147.16 164.853 147.16V148C164.24 147.973 163.373 147.947 162.253 147.92C161.133 147.867 159.947 147.84 158.693 147.84C157.787 147.84 156.88 147.867 155.973 147.92C155.093 147.947 154.427 147.973 153.973 148V147.16C155.067 147.16 155.84 146.96 156.293 146.56C156.773 146.16 157.013 145.4 157.013 144.28V128.24H153.813V127.44H157.013C157.013 125.867 157.08 124.547 157.213 123.48C157.347 122.413 157.56 121.507 157.853 120.76C158.147 119.987 158.547 119.307 159.053 118.72C159.587 118.107 160.267 117.627 161.093 117.28C161.92 116.907 162.827 116.72 163.813 116.72ZM187.896 119.68V120.48C186.989 120.507 186.296 120.613 185.816 120.8C185.362 120.96 185.056 121.28 184.896 121.76C184.736 122.213 184.656 122.933 184.656 123.92V143.76C184.656 144.72 184.736 145.44 184.896 145.92C185.056 146.4 185.362 146.72 185.816 146.88C186.296 147.013 186.989 147.08 187.896 147.08H190.816C192.069 147.08 193.082 146.947 193.856 146.68C194.656 146.413 195.282 146 195.736 145.44C196.216 144.853 196.576 144.08 196.816 143.12C197.056 142.16 197.242 140.987 197.376 139.6H198.296C198.216 140.427 198.176 141.52 198.176 142.88C198.176 143.387 198.189 144.12 198.216 145.08C198.269 146.013 198.349 146.987 198.456 148C197.096 147.947 195.562 147.92 193.856 147.92C192.149 147.893 190.629 147.88 189.296 147.88C188.709 147.88 187.949 147.88 187.016 147.88C186.109 147.88 185.122 147.893 184.056 147.92C182.989 147.92 181.909 147.933 180.816 147.96C179.722 147.96 178.682 147.973 177.696 148V147.2C178.602 147.147 179.282 147.04 179.736 146.88C180.216 146.72 180.536 146.4 180.696 145.92C180.856 145.44 180.936 144.72 180.936 143.76V123.92C180.936 122.933 180.856 122.213 180.696 121.76C180.536 121.28 180.216 120.96 179.736 120.8C179.282 120.613 178.602 120.507 177.696 120.48V119.68C178.256 119.707 178.989 119.733 179.896 119.76C180.802 119.787 181.776 119.8 182.816 119.8C183.749 119.8 184.669 119.787 185.576 119.76C186.509 119.733 187.282 119.707 187.896 119.68ZM210.491 126.84C212.198 126.84 213.731 127.213 215.091 127.96C216.451 128.707 217.531 129.88 218.331 131.48C219.158 133.08 219.571 135.16 219.571 137.72C219.571 140.28 219.158 142.36 218.331 143.96C217.531 145.533 216.451 146.693 215.091 147.44C213.731 148.187 212.198 148.56 210.491 148.56C208.811 148.56 207.278 148.187 205.891 147.44C204.531 146.693 203.438 145.533 202.611 143.96C201.811 142.36 201.411 140.28 201.411 137.72C201.411 135.16 201.811 133.08 202.611 131.48C203.438 129.88 204.531 128.707 205.891 127.96C207.278 127.213 208.811 126.84 210.491 126.84ZM210.491 127.64C208.971 127.64 207.718 128.427 206.731 130C205.771 131.573 205.291 134.147 205.291 137.72C205.291 141.293 205.771 143.867 206.731 145.44C207.718 146.987 208.971 147.76 210.491 147.76C212.011 147.76 213.251 146.987 214.211 145.44C215.198 143.867 215.691 141.293 215.691 137.72C215.691 134.147 215.198 131.573 214.211 130C213.251 128.427 212.011 127.64 210.491 127.64ZM236.045 126.84C237.059 126.84 237.899 126.973 238.565 127.24C239.259 127.507 239.832 127.88 240.285 128.36C240.792 128.893 241.152 129.56 241.365 130.36C241.579 131.16 241.685 132.24 241.685 133.6V144.28C241.685 145.4 241.912 146.16 242.365 146.56C242.845 146.96 243.632 147.16 244.725 147.16V148C244.272 147.973 243.579 147.947 242.645 147.92C241.712 147.867 240.805 147.84 239.925 147.84C239.045 147.84 238.179 147.867 237.325 147.92C236.499 147.947 235.872 147.973 235.445 148V147.16C236.405 147.16 237.085 146.96 237.485 146.56C237.885 146.16 238.085 145.4 238.085 144.28V132.72C238.085 131.893 238.019 131.133 237.885 130.44C237.752 129.747 237.445 129.187 236.965 128.76C236.512 128.333 235.805 128.12 234.845 128.12C233.725 128.12 232.739 128.44 231.885 129.08C231.059 129.72 230.405 130.6 229.925 131.72C229.472 132.813 229.245 134.04 229.245 135.4V144.28C229.245 145.4 229.445 146.16 229.845 146.56C230.245 146.96 230.925 147.16 231.885 147.16V148C231.459 147.973 230.819 147.947 229.965 147.92C229.139 147.867 228.285 147.84 227.405 147.84C226.525 147.84 225.619 147.867 224.685 147.92C223.752 147.947 223.059 147.973 222.605 148V147.16C223.699 147.16 224.472 146.96 224.925 146.56C225.405 146.16 225.645 145.4 225.645 144.28V131.76C225.645 130.56 225.432 129.68 225.005 129.12C224.579 128.533 223.779 128.24 222.605 128.24V127.4C223.459 127.48 224.285 127.52 225.085 127.52C225.859 127.52 226.592 127.48 227.285 127.4C228.005 127.293 228.659 127.147 229.245 126.96V131.68C229.939 129.867 230.899 128.613 232.125 127.92C233.379 127.2 234.685 126.84 236.045 126.84ZM264.673 116.64V143.64C264.673 144.84 264.886 145.733 265.312 146.32C265.766 146.88 266.566 147.16 267.713 147.16V148C266.886 147.92 266.059 147.88 265.233 147.88C264.459 147.88 263.713 147.92 262.993 148C262.299 148.08 261.659 148.227 261.073 148.44V121.44C261.073 120.24 260.859 119.36 260.433 118.8C260.006 118.213 259.206 117.92 258.033 117.92V117.08C258.886 117.16 259.713 117.2 260.513 117.2C261.286 117.2 262.019 117.16 262.713 117.08C263.433 116.973 264.086 116.827 264.673 116.64ZM256.273 126.84C257.446 126.84 258.539 127.12 259.553 127.68C260.593 128.24 261.286 129.2 261.633 130.56L261.113 130.96C260.739 129.84 260.153 129.027 259.353 128.52C258.579 128.013 257.659 127.76 256.593 127.76C255.019 127.76 253.699 128.573 252.633 130.2C251.593 131.827 251.086 134.333 251.113 137.72C251.113 139.88 251.313 141.68 251.713 143.12C252.139 144.533 252.753 145.6 253.553 146.32C254.379 147.013 255.379 147.36 256.553 147.36C257.673 147.36 258.686 146.88 259.593 145.92C260.499 144.96 261.046 143.547 261.233 141.68L261.713 142.24C261.499 144.267 260.846 145.827 259.753 146.92C258.686 148.013 257.233 148.56 255.393 148.56C253.739 148.56 252.286 148.16 251.033 147.36C249.806 146.56 248.859 145.36 248.193 143.76C247.553 142.16 247.233 140.147 247.233 137.72C247.233 135.293 247.646 133.28 248.473 131.68C249.326 130.053 250.433 128.84 251.793 128.04C253.179 127.24 254.673 126.84 256.273 126.84ZM279.515 126.84C281.221 126.84 282.755 127.213 284.115 127.96C285.475 128.707 286.555 129.88 287.355 131.48C288.181 133.08 288.595 135.16 288.595 137.72C288.595 140.28 288.181 142.36 287.355 143.96C286.555 145.533 285.475 146.693 284.115 147.44C282.755 148.187 281.221 148.56 279.515 148.56C277.835 148.56 276.301 148.187 274.915 147.44C273.555 146.693 272.461 145.533 271.635 143.96C270.835 142.36 270.435 140.28 270.435 137.72C270.435 135.16 270.835 133.08 271.635 131.48C272.461 129.88 273.555 128.707 274.915 127.96C276.301 127.213 277.835 126.84 279.515 126.84ZM279.515 127.64C277.995 127.64 276.741 128.427 275.755 130C274.795 131.573 274.315 134.147 274.315 137.72C274.315 141.293 274.795 143.867 275.755 145.44C276.741 146.987 277.995 147.76 279.515 147.76C281.035 147.76 282.275 146.987 283.235 145.44C284.221 143.867 284.715 141.293 284.715 137.72C284.715 134.147 284.221 131.573 283.235 130C282.275 128.427 281.035 127.64 279.515 127.64ZM305.069 126.84C306.082 126.84 306.922 126.973 307.589 127.24C308.282 127.507 308.855 127.88 309.309 128.36C309.815 128.893 310.175 129.56 310.389 130.36C310.602 131.16 310.709 132.24 310.709 133.6V144.28C310.709 145.4 310.935 146.16 311.389 146.56C311.869 146.96 312.655 147.16 313.749 147.16V148C313.295 147.973 312.602 147.947 311.669 147.92C310.735 147.867 309.829 147.84 308.949 147.84C308.069 147.84 307.202 147.867 306.349 147.92C305.522 147.947 304.895 147.973 304.469 148V147.16C305.429 147.16 306.109 146.96 306.509 146.56C306.909 146.16 307.109 145.4 307.109 144.28V132.72C307.109 131.893 307.042 131.133 306.909 130.44C306.775 129.747 306.469 129.187 305.989 128.76C305.535 128.333 304.829 128.12 303.869 128.12C302.749 128.12 301.762 128.44 300.909 129.08C300.082 129.72 299.429 130.6 298.949 131.72C298.495 132.813 298.269 134.04 298.269 135.4V144.28C298.269 145.4 298.469 146.16 298.869 146.56C299.269 146.96 299.949 147.16 300.909 147.16V148C300.482 147.973 299.842 147.947 298.989 147.92C298.162 147.867 297.309 147.84 296.429 147.84C295.549 147.84 294.642 147.867 293.709 147.92C292.775 147.947 292.082 147.973 291.629 148V147.16C292.722 147.16 293.495 146.96 293.949 146.56C294.429 146.16 294.669 145.4 294.669 144.28V131.76C294.669 130.56 294.455 129.68 294.029 129.12C293.602 128.533 292.802 128.24 291.629 128.24V127.4C292.482 127.48 293.309 127.52 294.109 127.52C294.882 127.52 295.615 127.48 296.309 127.4C297.029 127.293 297.682 127.147 298.269 126.96V131.68C298.962 129.867 299.922 128.613 301.149 127.92C302.402 127.2 303.709 126.84 305.069 126.84Z" fill="#1E1E1E"/>
<path d="M88.192 14.376V16.808C85.4613 17.4053 82.5173 18.6 79.36 20.392C76.288 22.184 73.0453 25.0853 69.632 29.096L45.568 57.768L52.992 47.144L83.456 94.632C84.6507 96.5947 85.9307 98.1733 87.296 99.368C88.6613 100.563 90.4533 101.587 92.672 102.44V105C89.6853 104.829 86.3573 104.744 82.688 104.744C79.0187 104.659 75.6907 104.616 72.704 104.616C70.912 104.616 68.736 104.659 66.176 104.744C63.616 104.744 60.3733 104.829 56.448 105V102.44C59.9467 102.269 62.0373 101.8 62.72 101.032C63.488 100.179 63.1893 98.728 61.824 96.68L43.264 66.6C42.0693 64.6373 41.0027 63.1867 40.064 62.248C39.1253 61.224 38.1867 60.5413 37.248 60.2C36.3093 59.7733 35.072 59.5173 33.536 59.432V56.744C37.2907 56.6587 40.6187 55.6347 43.52 53.672C46.5067 51.7093 49.7493 48.7227 53.248 44.712L60.8 35.624C64.0427 31.784 65.92 28.4987 66.432 25.768C67.0293 22.952 66.4747 20.776 64.768 19.24C63.1467 17.704 60.6293 16.8933 57.216 16.808V14.376C59.3493 14.4613 61.3547 14.5467 63.232 14.632C65.1947 14.632 67.2 14.6747 69.248 14.76C71.3813 14.76 73.6853 14.76 76.16 14.76C78.6347 14.76 80.8533 14.7173 82.816 14.632C84.864 14.5467 86.656 14.4613 88.192 14.376ZM43.904 14.376V16.936C41.1733 17.0213 39.0827 17.3627 37.632 17.96C36.2667 18.472 35.3707 19.496 34.944 21.032C34.5173 22.4827 34.304 24.7867 34.304 27.944V91.432C34.304 94.504 34.5173 96.808 34.944 98.344C35.456 99.88 36.3947 100.904 37.76 101.416C39.1253 101.928 41.1733 102.269 43.904 102.44V105C41.6 104.829 38.6987 104.744 35.2 104.744C31.7013 104.659 28.16 104.616 24.576 104.616C20.48 104.616 16.5973 104.659 12.928 104.744C9.344 104.744 6.48533 104.829 4.352 105V102.44C7.08267 102.269 9.13067 101.928 10.496 101.416C11.8613 100.904 12.7573 99.88 13.184 98.344C13.696 96.808 13.952 94.504 13.952 91.432V27.944C13.952 24.7867 13.696 22.4827 13.184 21.032C12.7573 19.496 11.8187 18.472 10.368 17.96C9.00267 17.3627 6.99733 17.0213 4.352 16.936V14.376C6.48533 14.4613 9.344 14.5467 12.928 14.632C16.5973 14.7173 20.48 14.76 24.576 14.76C28.16 14.76 31.7013 14.7173 35.2 14.632C38.6987 14.5467 41.6 14.4613 43.904 14.376ZM111.087 5.8C114.671 5.8 117.487 6.696 119.535 8.488C121.668 10.1947 122.735 12.584 122.735 15.656C122.735 18.728 121.668 21.16 119.535 22.952C117.487 24.6587 114.671 25.512 111.087 25.512C107.503 25.512 104.644 24.6587 102.511 22.952C100.463 21.16 99.439 18.728 99.439 15.656C99.439 12.584 100.463 10.1947 102.511 8.488C104.644 6.696 107.503 5.8 111.087 5.8ZM121.071 37.416V93.096C121.071 96.68 121.668 99.112 122.863 100.392C124.143 101.672 126.276 102.312 129.263 102.312V105C127.727 104.915 125.338 104.829 122.095 104.744C118.852 104.573 115.567 104.488 112.239 104.488C108.911 104.488 105.54 104.573 102.127 104.744C98.7137 104.829 96.1537 104.915 94.447 105V102.312C97.4337 102.312 99.5243 101.672 100.719 100.392C101.999 99.112 102.639 96.68 102.639 93.096V52.776C102.639 48.936 102.042 46.12 100.847 44.328C99.7377 42.4507 97.6043 41.512 94.447 41.512V38.824C97.1777 39.08 99.823 39.208 102.383 39.208C105.967 39.208 109.295 39.08 112.367 38.824C115.524 38.4827 118.426 38.0133 121.071 37.416ZM160.806 4.77599V93.096C160.806 96.68 161.361 99.112 162.47 100.392C163.665 101.672 165.67 102.312 168.486 102.312V105C166.865 104.915 164.475 104.829 161.318 104.744C158.246 104.573 155.089 104.488 151.846 104.488C148.518 104.488 145.147 104.573 141.734 104.744C138.406 104.829 135.889 104.915 134.182 105V102.312C137.169 102.312 139.259 101.672 140.454 100.392C141.734 99.112 142.374 96.68 142.374 93.096V20.136C142.374 16.296 141.777 13.48 140.582 11.688C139.473 9.81066 137.339 8.87199 134.182 8.87199V6.184C136.913 6.43999 139.558 6.56799 142.118 6.56799C145.617 6.56799 148.945 6.43999 152.102 6.184C155.259 5.84266 158.161 5.37333 160.806 4.77599ZM202.534 38.824V41.384C199.889 41.896 197.243 43.0053 194.598 44.712C191.953 46.4187 189.265 48.5947 186.534 51.24L176.678 61.48L177.958 59.048L199.846 95.656C200.785 97.192 201.766 98.5573 202.79 99.752C203.814 100.947 205.051 101.8 206.502 102.312V105C205.222 104.915 203.302 104.829 200.742 104.744C198.182 104.573 195.622 104.488 193.062 104.488C189.905 104.488 186.747 104.573 183.59 104.744C180.433 104.829 178.086 104.915 176.55 105V102.312C178.257 102.312 179.409 101.928 180.006 101.16C180.603 100.307 180.518 99.24 179.75 97.96L167.078 75.048C166.054 73.4267 165.03 72.4027 164.006 71.976C163.067 71.464 161.787 71.1653 160.166 71.08V68.648C161.958 68.4773 163.494 68.1787 164.774 67.752C166.139 67.3253 167.377 66.5147 168.486 65.32L178.214 55.848C181.115 53.1173 182.566 50.6853 182.566 48.552C182.566 46.4187 181.627 44.712 179.75 43.432C177.958 42.152 175.569 41.4693 172.582 41.384V38.824C174.971 38.9093 177.574 38.9947 180.39 39.08C183.206 39.1653 185.595 39.208 187.558 39.208C189.265 39.208 191.057 39.208 192.934 39.208C194.897 39.1227 196.731 39.08 198.438 39.08C200.145 38.9947 201.51 38.9093 202.534 38.824ZM239.721 37.032C245.95 37.032 251.412 38.184 256.105 40.488C260.798 42.792 264.468 46.504 267.113 51.624C269.758 56.744 271.081 63.528 271.081 71.976C271.081 80.424 269.758 87.208 267.113 92.328C264.468 97.3627 260.798 101.032 256.105 103.336C251.412 105.64 245.95 106.792 239.721 106.792C233.662 106.792 228.244 105.64 223.465 103.336C218.772 101.032 215.06 97.3627 212.329 92.328C209.684 87.208 208.361 80.424 208.361 71.976C208.361 63.528 209.684 56.744 212.329 51.624C215.06 46.504 218.772 42.792 223.465 40.488C228.244 38.184 233.662 37.032 239.721 37.032ZM239.721 39.592C236.308 39.592 233.449 42.152 231.145 47.272C228.841 52.3067 227.689 60.5413 227.689 71.976C227.689 83.4107 228.841 91.6453 231.145 96.68C233.449 101.715 236.308 104.232 239.721 104.232C243.22 104.232 246.078 101.715 248.297 96.68C250.601 91.6453 251.753 83.4107 251.753 71.976C251.753 60.5413 250.601 52.3067 248.297 47.272C246.078 42.152 243.22 39.592 239.721 39.592Z" fill="#1E1E1E"/>
</g>
<defs>
<clipPath id="clip0_205_22">
<rect width="323" height="151" fill="white"/>
</clipPath>
</defs>
</svg>
