<svg width="400" height="209" viewBox="0 0 400 209" fill="none" xmlns="http://www.w3.org/2000/svg">
<path d="M54.6523 118.062H57.7055C62.7888 118.062 64.2367 115.452 64.1895 112.701C64.1895 109.557 62.3009 107.717 57.7055 107.717H54.6523V118.062ZM58.2405 103.646C64.9292 103.646 69.084 107.183 69.084 112.89C69.1521 114.644 68.6575 116.374 67.6723 117.827C66.6871 119.281 65.2628 120.382 63.6072 120.97C66.5974 122.951 68.4387 126.001 70.9568 130.104C72.3575 132.384 73.1916 133.5 75.4579 136.628H69.7922L65.4328 129.868C61.0734 123.092 59.1376 122.322 56.6667 122.322H54.6523V136.628H49.9309V103.614L58.2405 103.646ZM96.0117 132.714C98.5018 132.714 100.936 131.976 103.006 130.594C105.077 129.212 106.691 127.248 107.644 124.95C108.597 122.652 108.846 120.123 108.36 117.683C107.874 115.244 106.675 113.003 104.914 111.244C103.154 109.485 100.91 108.287 98.4679 107.802C96.0256 107.317 93.4941 107.566 91.1935 108.518C88.8929 109.469 86.9266 111.081 85.5431 113.15C84.1597 115.218 83.4213 117.649 83.4213 120.137C83.4213 123.473 84.7478 126.671 87.1089 129.03C89.4701 131.389 92.6725 132.714 96.0117 132.714ZM96.0117 103.221C106.902 103.221 113.764 110.956 113.764 120.137C113.764 129.051 107.091 137.068 95.9015 137.068C85.1053 137.068 78.2907 129.082 78.2907 120.137C78.2907 111.192 85.3098 103.221 96.0117 103.221ZM139.244 103.661H144.957L132.854 119.225V136.628H128.133V119.178L115.779 103.661H121.491L130.352 115.028L139.244 103.661ZM154.132 122.652H164.393L159.058 110.72L154.132 122.652ZM175.567 136.628H170.798L166.392 126.913H152.354L148.183 136.628H143.336L157.5 103.457H160.868L175.567 136.628ZM187.528 132.384H202.448V136.628H182.854V103.614H187.575L187.528 132.384ZM78.7786 177.361C74.838 179.195 70.5349 180.119 66.1882 180.065C56.0687 180.065 48.6089 173.006 48.6089 163.322C48.6089 153.638 56.2576 146.218 66.3299 146.218C70.2014 146.218 72.9083 146.847 78.0861 149.016V153.733C74.4776 151.658 70.3986 150.538 66.2354 150.478C64.5899 150.445 62.954 150.737 61.422 151.338C59.89 151.939 58.492 152.836 57.3086 153.979C56.1253 155.122 55.1798 156.487 54.5268 157.996C53.8737 159.505 53.5259 161.128 53.5034 162.772V163.134C53.5034 170.491 59.0117 175.71 66.8649 175.71C69.3051 175.648 71.7207 175.208 74.0257 174.406V167.63H67.7305V163.385H78.8258L78.7786 177.361ZM94.1231 161.059H97.1763C102.26 161.059 103.708 158.449 103.66 155.682C103.66 152.538 101.772 150.714 97.1763 150.714H94.1231V161.059ZM97.7114 146.642C104.384 146.642 108.555 150.18 108.555 155.886C108.61 157.644 108.104 159.374 107.111 160.826C106.119 162.278 104.69 163.378 103.031 163.967C106.1 165.916 107.878 169.06 110.396 173.101C111.797 175.38 112.615 176.496 114.897 179.625H109.247L104.888 172.865C100.528 166.089 98.5927 165.319 96.1218 165.319H94.1231V179.625H89.4017V146.611L97.7114 146.642ZM140.896 150.903H126.905V160.87H140.408V165.115H126.905V175.349H141.337V179.593H122.152V146.58H140.896V150.903ZM168.737 150.903H154.746V160.87H168.249V165.115H154.746V175.349H169.177V179.593H149.993V146.58H168.737V150.903ZM208.396 179.625H204.32L182.287 154.236V179.625H177.802V146.611H181.642L203.943 172.205V146.642H208.396V179.625ZM252.652 179.924H251.723L240.88 152.931L229.863 179.924H228.95L215.573 146.642H220.294L229.391 169.375L238.55 146.642H243.051L252.258 169.375L261.26 146.642H265.982L252.652 179.924ZM273.426 146.658H278.147V179.672H273.426V146.658ZM317.24 154C313.844 151.814 309.902 150.621 305.862 150.557C298.307 150.557 292.689 155.934 292.689 163.134C292.689 170.334 298.119 175.71 306.051 175.71C310.172 175.587 314.173 174.294 317.586 171.985V177.157C313.917 179.14 309.797 180.142 305.626 180.065C293.224 180.065 287.81 170.538 287.81 163.621C287.81 153.56 295.396 146.218 305.925 146.218C309.842 146.339 313.693 147.259 317.24 148.922V154ZM355.011 179.625H350.29V165.272H331.782V179.625H327.061V146.611H331.782V160.98H350.258V146.642H354.98L355.011 179.625ZM243.728 124.712C243.789 123.723 243.541 122.74 243.02 121.898C242.806 121.595 242.52 121.35 242.187 121.185C241.855 121.021 241.487 120.941 241.116 120.954C240.374 120.954 239.652 121.191 239.054 121.63C238.311 122.196 237.735 122.951 237.386 123.816C237.02 124.628 236.761 125.484 236.615 126.362C236.452 127.212 236.368 128.075 236.363 128.941C236.298 129.932 236.522 130.92 237.008 131.786C237.22 132.105 237.511 132.363 237.854 132.534C238.196 132.705 238.577 132.783 238.96 132.761C239.719 132.773 240.456 132.51 241.037 132.022C241.665 131.518 242.171 130.878 242.516 130.151C242.916 129.351 243.202 128.499 243.366 127.62C243.581 126.66 243.687 125.679 243.681 124.696M246.356 125.199C246.358 126.269 246.183 127.331 245.837 128.343C245.508 129.349 244.972 130.276 244.263 131.063C243.599 131.88 242.767 132.545 241.824 133.012C240.797 133.518 239.663 133.766 238.519 133.736C237.864 133.761 237.211 133.649 236.601 133.408C235.991 133.167 235.439 132.802 234.978 132.336C234.51 131.827 234.15 131.23 233.917 130.579C233.685 129.928 233.585 129.237 233.624 128.548C233.612 127.431 233.809 126.322 234.207 125.278C234.569 124.306 235.102 123.406 235.781 122.621C236.483 121.832 237.34 121.195 238.299 120.75C239.279 120.274 240.356 120.032 241.446 120.043C242.124 120.003 242.803 120.111 243.436 120.358C244.069 120.605 244.641 120.985 245.113 121.473C246.012 122.507 246.48 123.846 246.419 125.215M259.844 122.181C259.844 122.456 259.812 122.73 259.749 122.998C259.69 123.254 259.589 123.498 259.45 123.721C259.315 123.937 259.139 124.124 258.931 124.272C258.68 124.407 258.398 124.473 258.113 124.46C257.922 124.474 257.73 124.45 257.548 124.387C257.367 124.325 257.2 124.227 257.058 124.099C256.84 123.894 256.71 123.612 256.696 123.313C256.71 123.001 256.774 122.693 256.885 122.401L257.31 121.395H256.775C256.478 121.487 256.188 121.602 255.909 121.74C255.497 121.944 255.111 122.197 254.761 122.495C254.254 122.886 253.79 123.328 253.376 123.816L251.251 133.248H248.796L250.716 124.727C250.738 124.406 250.801 124.089 250.905 123.784C250.97 123.473 251.012 123.158 251.031 122.841C251.098 122.585 251.062 122.312 250.929 122.082C250.796 121.853 250.578 121.685 250.322 121.615C250.143 121.56 249.951 121.56 249.772 121.615C249.522 121.614 249.273 121.646 249.032 121.709L248.339 121.882L248.544 121.033C249.132 120.768 249.736 120.542 250.354 120.357C250.797 120.215 251.258 120.136 251.723 120.121C252 120.098 252.279 120.138 252.538 120.239C252.797 120.34 253.03 120.499 253.218 120.703C253.563 121.204 253.725 121.81 253.675 122.416C254.425 121.739 255.214 121.104 256.035 120.514C256.528 120.167 257.116 119.98 257.719 119.98C257.996 119.977 258.272 120.014 258.538 120.09C258.791 120.141 259.025 120.26 259.214 120.436C259.398 120.62 259.543 120.839 259.639 121.08C259.736 121.417 259.779 121.767 259.765 122.118M270.624 124.712C270.689 123.736 270.464 122.763 269.979 121.913C269.765 121.607 269.476 121.36 269.14 121.195C268.805 121.03 268.433 120.953 268.059 120.97C267.317 120.97 266.595 121.207 265.997 121.646C265.289 122.223 264.746 122.977 264.424 123.831C264.044 124.639 263.779 125.497 263.637 126.378C263.474 127.228 263.39 128.091 263.385 128.956C263.318 129.949 263.548 130.94 264.046 131.802C264.257 132.121 264.549 132.379 264.891 132.55C265.234 132.721 265.615 132.799 265.997 132.777C266.755 132.782 267.491 132.52 268.075 132.038C268.69 131.525 269.189 130.887 269.538 130.167C269.936 129.365 270.227 128.514 270.404 127.636C270.605 126.674 270.705 125.694 270.703 124.712M273.394 125.215C273.396 126.284 273.22 127.347 272.875 128.359C272.526 129.356 271.992 130.279 271.301 131.079C270.629 131.888 269.799 132.551 268.862 133.028C267.835 133.534 266.701 133.782 265.557 133.751C264.902 133.776 264.248 133.665 263.639 133.424C263.029 133.183 262.476 132.818 262.016 132.352C261.548 131.843 261.188 131.245 260.955 130.595C260.723 129.944 260.623 129.253 260.662 128.563C260.653 127.448 260.845 126.341 261.229 125.293C261.607 124.329 262.139 123.432 262.803 122.637C263.476 121.865 264.301 121.239 265.226 120.797C266.209 120.328 267.285 120.087 268.374 120.09C269.052 120.051 269.731 120.158 270.364 120.405C270.997 120.652 271.569 121.032 272.041 121.52C272.953 122.548 273.427 123.89 273.363 125.262M283.498 131.456H283.419C283.026 131.786 282.632 132.085 282.27 132.352C281.606 132.875 280.848 133.265 280.036 133.5C279.599 133.61 279.148 133.658 278.698 133.641C278.339 133.665 277.979 133.611 277.642 133.483C277.305 133.356 277 133.158 276.746 132.902C276.506 132.649 276.32 132.35 276.198 132.023C276.077 131.696 276.022 131.348 276.038 131C276.022 130.749 276.022 130.497 276.038 130.245C276.098 129.811 276.182 129.381 276.29 128.956L277.297 124.79C277.392 124.413 277.47 124.067 277.518 123.768C277.58 123.49 277.612 123.205 277.612 122.92C277.663 122.748 277.666 122.566 277.621 122.392C277.576 122.219 277.485 122.061 277.358 121.935C277.23 121.809 277.071 121.72 276.897 121.678C276.722 121.635 276.54 121.641 276.369 121.693C276.124 121.698 275.88 121.735 275.645 121.803L274.937 121.976L275.141 121.127C275.729 120.858 276.333 120.626 276.951 120.436C277.358 120.298 277.781 120.213 278.21 120.184C278.493 120.16 278.777 120.191 279.048 120.278C279.318 120.364 279.568 120.503 279.784 120.687C279.956 120.875 280.087 121.096 280.171 121.337C280.255 121.577 280.289 121.832 280.272 122.086C280.287 122.301 280.287 122.516 280.272 122.731C280.248 123.008 280.196 123.282 280.114 123.548L278.95 128.406C278.911 128.753 278.838 129.096 278.729 129.428C278.688 129.672 278.661 129.919 278.651 130.167C278.624 130.662 278.757 131.152 279.028 131.566C279.178 131.737 279.365 131.872 279.575 131.959C279.786 132.046 280.013 132.084 280.24 132.069C280.839 132.057 281.426 131.907 281.956 131.629C282.616 131.281 283.216 130.83 283.734 130.293L286.032 120.404L288.33 120.247L288.487 120.436L286.535 128.893C286.441 129.255 286.378 129.617 286.299 129.978C286.247 130.233 286.21 130.49 286.189 130.749C286.166 130.933 286.184 131.119 286.241 131.296C286.298 131.473 286.393 131.634 286.52 131.77C286.837 131.976 287.213 132.07 287.59 132.038H288.298C288.539 132.002 288.776 131.945 289.006 131.865L288.802 132.714C288.204 132.965 287.59 133.185 286.976 133.374C286.545 133.518 286.093 133.593 285.638 133.594C285.347 133.618 285.053 133.576 284.78 133.47C284.508 133.363 284.263 133.196 284.065 132.981C283.704 132.587 283.512 132.068 283.53 131.535M300.841 123.124C300.843 122.868 300.806 122.614 300.731 122.369C300.646 122.104 300.5 121.862 300.306 121.662C300.107 121.441 299.859 121.269 299.582 121.159C299.216 121.018 298.825 120.953 298.433 120.97C297.75 120.973 297.085 121.187 296.529 121.583C295.9 122.036 295.365 122.608 294.955 123.265C294.47 124.011 294.104 124.828 293.869 125.686C293.588 126.609 293.444 127.568 293.444 128.532C293.447 129.011 293.489 129.49 293.57 129.963C293.631 130.358 293.759 130.741 293.948 131.094C294.118 131.411 294.375 131.672 294.688 131.849C295.048 132.046 295.457 132.139 295.868 132.116C296.511 132.104 297.14 131.925 297.694 131.597C298.319 131.213 298.895 130.754 299.409 130.23L300.841 123.124ZM299.079 131.535H299L298.244 132.132C297.925 132.381 297.588 132.606 297.237 132.808C296.857 133.044 296.45 133.234 296.025 133.374C295.586 133.531 295.123 133.611 294.656 133.61C294.092 133.643 293.529 133.536 293.016 133.301C292.503 133.065 292.055 132.707 291.713 132.258C290.971 131.168 290.611 129.863 290.69 128.548C290.692 127.472 290.895 126.405 291.288 125.403C291.654 124.409 292.186 123.484 292.862 122.668C293.528 121.897 294.341 121.266 295.254 120.813C296.712 120.063 298.401 119.9 299.976 120.357C300.451 120.483 300.906 120.673 301.329 120.923L303.737 120.31L303.894 120.499L301.691 130.859C301.419 132.23 300.986 133.565 300.401 134.836C299.976 135.803 299.36 136.674 298.591 137.399C297.932 138.026 297.142 138.499 296.277 138.782C295.341 139.075 294.363 139.213 293.381 139.191C292.779 139.204 292.176 139.146 291.587 139.018C291.207 138.929 290.845 138.774 290.517 138.562C290.28 138.417 290.093 138.203 289.982 137.949C289.889 137.736 289.84 137.505 289.84 137.273C289.83 136.909 289.96 136.554 290.202 136.282C290.323 136.15 290.472 136.046 290.638 135.978C290.804 135.91 290.983 135.88 291.162 135.889C291.466 135.879 291.762 135.979 291.997 136.172C292.204 136.348 292.389 136.549 292.547 136.77C292.71 137.034 292.857 137.307 292.988 137.587C293.13 137.902 293.224 138.137 293.303 138.295H293.696C294.236 138.279 294.769 138.167 295.27 137.964C295.87 137.741 296.409 137.38 296.844 136.911C297.378 136.298 297.818 135.61 298.15 134.867C298.605 133.817 298.922 132.713 299.094 131.582M319.554 131.77L319.349 132.619C318.562 132.934 317.948 133.154 317.508 133.311C317.081 133.45 316.635 133.519 316.186 133.515C315.901 133.537 315.615 133.5 315.344 133.408C315.074 133.316 314.825 133.171 314.612 132.981C314.44 132.801 314.305 132.589 314.216 132.357C314.127 132.125 314.085 131.877 314.093 131.629C314.077 131.42 314.077 131.209 314.093 131C314.134 130.719 314.191 130.441 314.266 130.167L315.556 125.278C315.651 124.9 315.729 124.555 315.792 124.24C315.808 123.999 315.808 123.758 315.792 123.517C315.82 123.015 315.669 122.52 315.367 122.118C315.22 121.939 315.031 121.8 314.817 121.712C314.603 121.624 314.37 121.591 314.14 121.615C313.505 121.633 312.886 121.817 312.346 122.149C311.638 122.559 311.009 123.091 310.489 123.721L308.254 133.374H305.814L309.749 116.443C309.764 116.266 309.801 116.091 309.859 115.924C309.875 115.772 309.875 115.619 309.859 115.468C309.879 115.217 309.824 114.965 309.702 114.745C309.593 114.57 309.434 114.433 309.245 114.352C309.025 114.261 308.791 114.207 308.553 114.194L307.672 114.1L307.86 113.314L312.771 113.015L312.912 113.22L310.803 122.306C311.554 121.707 312.36 121.181 313.211 120.734C313.953 120.345 314.782 120.15 315.619 120.168C315.979 120.146 316.34 120.198 316.679 120.323C317.018 120.447 317.327 120.641 317.586 120.892C317.827 121.148 318.013 121.449 318.135 121.779C318.257 122.108 318.311 122.459 318.295 122.81V123.643C318.248 124.052 318.169 124.457 318.059 124.853L316.957 129.066C316.911 129.392 316.837 129.713 316.737 130.025C316.672 130.304 316.629 130.588 316.611 130.874C316.588 131.058 316.606 131.245 316.663 131.422C316.72 131.598 316.815 131.76 316.941 131.896C317.265 132.1 317.646 132.193 318.027 132.163C318.263 132.179 318.5 132.179 318.735 132.163C318.981 132.117 319.223 132.054 319.459 131.975M337.684 124.712C337.751 123.734 337.521 122.758 337.023 121.913C336.813 121.606 336.528 121.358 336.194 121.193C335.861 121.028 335.49 120.951 335.119 120.97C334.377 120.97 333.654 121.207 333.057 121.646C332.319 122.212 331.748 122.967 331.404 123.831C331.025 124.639 330.76 125.497 330.618 126.378C330.455 127.228 330.371 128.091 330.366 128.956C330.301 129.947 330.525 130.936 331.011 131.802C331.226 132.121 331.52 132.378 331.865 132.549C332.21 132.72 332.594 132.799 332.978 132.777C333.732 132.785 334.463 132.523 335.04 132.038C335.668 131.533 336.173 130.894 336.519 130.167C336.917 129.365 337.208 128.514 337.385 127.636C337.586 126.674 337.686 125.694 337.684 124.712ZM340.375 125.215C340.371 126.285 340.19 127.348 339.84 128.359C339.494 129.358 338.96 130.281 338.266 131.079C337.601 131.863 336.788 132.509 335.874 132.981C334.841 133.485 333.702 133.733 332.553 133.704C331.901 133.727 331.251 133.615 330.644 133.374C330.037 133.133 329.487 132.769 329.028 132.305C328.087 131.273 327.595 129.91 327.659 128.516C327.646 127.399 327.844 126.29 328.241 125.246C328.603 124.274 329.136 123.375 329.815 122.589C330.504 121.821 331.339 121.196 332.27 120.75C333.25 120.274 334.328 120.032 335.418 120.043C336.096 120.003 336.775 120.111 337.407 120.358C338.04 120.605 338.612 120.985 339.085 121.473C339.997 122.501 340.471 123.843 340.407 125.215M347.772 121.678L345.458 132.525C345.099 134.33 344.186 135.978 342.846 137.241C341.773 138.365 340.307 139.03 338.754 139.096C338.154 139.142 337.556 138.988 337.054 138.656C336.883 138.524 336.745 138.355 336.649 138.162C336.554 137.968 336.504 137.756 336.503 137.54C336.502 137.18 336.624 136.83 336.85 136.55C336.967 136.401 337.118 136.284 337.291 136.207C337.464 136.13 337.653 136.097 337.841 136.109C338.09 136.108 338.334 136.174 338.549 136.298C338.766 136.406 338.954 136.562 339.1 136.754C339.256 136.943 339.398 137.142 339.525 137.351L339.919 138.012C340.3 137.95 340.659 137.792 340.962 137.553C341.265 137.313 341.502 137 341.65 136.644C342.234 135.482 342.653 134.243 342.893 132.965L345.317 121.678H342.751L343.019 120.467H345.553L345.742 119.587C345.935 118.624 346.275 117.696 346.749 116.836C347.168 116.07 347.698 115.37 348.323 114.76C348.88 114.203 349.536 113.755 350.258 113.44C350.91 113.136 351.617 112.97 352.336 112.952C352.943 112.902 353.549 113.063 354.051 113.408C354.223 113.535 354.361 113.701 354.454 113.893C354.547 114.085 354.593 114.296 354.586 114.509C354.586 114.868 354.476 115.219 354.272 115.515C354.15 115.661 353.995 115.775 353.819 115.849C353.644 115.923 353.454 115.954 353.264 115.939C353.016 115.954 352.77 115.894 352.556 115.767C352.338 115.654 352.15 115.493 352.005 115.295C351.846 115.103 351.704 114.898 351.58 114.682C351.47 114.493 351.344 114.273 351.187 114.037C350.847 114.094 350.527 114.233 350.253 114.441C349.978 114.649 349.759 114.92 349.613 115.232C349 116.444 348.575 117.743 348.354 119.084L348.055 120.467H351.376L351.093 121.678H347.772ZM45.2725 56.2471C45.2725 56.2471 48.8922 82.391 108.508 83.9474C165.904 85.4408 231.626 30.1503 291.619 29.1442C358.678 28.0437 354.98 84.8906 354.98 84.8906C354.98 84.8906 351.958 31.8482 294.357 34.002C240.203 36.0457 180.147 81.2905 129.581 87.3116C52.449 96.2726 45.2725 56.2471 45.2725 56.2471ZM318.956 79.5769C318.327 79.1032 317.618 78.7464 316.863 78.5236C318.641 76.9515 322.15 72.8798 319.632 65.5381C316.878 57.5519 312.236 56.3571 309.702 56.3571H309.481C309.904 55.8264 310.205 55.2092 310.363 54.5492C310.508 53.4953 310.422 52.4225 310.111 51.405C310.076 51.3025 310.01 51.213 309.923 51.1484C309.836 51.0838 309.731 51.0472 309.623 51.0434C308.595 50.9777 307.566 51.1723 306.633 51.6094C306.019 52.0676 305.487 52.6256 305.059 53.2601C304.807 51.8842 304.168 50.6083 303.218 49.5814C301.266 47.3962 298.008 46.2957 293.523 46.2957C289.211 46.2957 285.969 47.3962 283.891 49.5342C282.869 50.5718 282.155 51.8726 281.83 53.2915C281.452 52.7541 280.964 52.3038 280.398 51.971C279.441 51.5285 278.399 51.2979 277.344 51.295C277.238 51.2996 277.136 51.3346 277.049 51.396C276.963 51.4573 276.896 51.5424 276.857 51.6408C276.481 52.611 276.367 53.6627 276.526 54.6907C276.731 55.3287 277.04 55.9288 277.439 56.4672C276.078 56.3614 274.714 56.622 273.489 57.2218C270.955 58.448 269.019 60.9948 267.697 64.815C266.123 69.264 266.123 72.9113 267.54 75.631C268.176 76.8271 269.122 77.8313 270.278 78.5394C269.669 78.7221 269.098 79.0152 268.594 79.404C267.839 80.1449 267.254 81.0406 266.879 82.0294C266.841 82.1307 266.836 82.2411 266.864 82.3454C266.892 82.4497 266.953 82.5426 267.036 82.6111C267.846 83.2911 268.815 83.7561 269.853 83.9631C270.571 83.9848 271.288 83.8947 271.978 83.6958C271.191 85.9439 270.294 91.2104 276.92 95.5966C281.358 98.5207 285.135 99.574 288.125 98.7408C289.162 98.4601 290.11 97.9189 290.879 97.1687C290.898 97.7701 291.031 98.3624 291.273 98.9137C291.789 99.8439 292.51 100.645 293.381 101.256C293.475 101.318 293.584 101.351 293.696 101.35H293.98C294.833 100.779 295.539 100.014 296.041 99.1181C296.257 98.5228 296.374 97.8961 296.387 97.263C297.307 98.1224 298.445 98.7148 299.677 98.9766C302.494 99.6054 305.752 98.6307 309.371 96.0839C312.991 93.5371 315.21 90.6602 315.666 87.6889C315.886 86.3748 315.761 85.0262 315.304 83.7744C315.974 83.9909 316.68 84.0763 317.382 84.026C318.424 83.8375 319.41 83.4126 320.262 82.784C320.347 82.7197 320.412 82.6319 320.449 82.5314C320.485 82.4309 320.491 82.322 320.467 82.2181C320.181 81.2299 319.663 80.3243 318.956 79.5769ZM317.24 82.9569C316.267 82.9606 315.307 82.7343 314.439 82.2967C314.333 82.2459 314.214 82.2322 314.099 82.2579C313.985 82.2836 313.883 82.3471 313.809 82.4381C313.734 82.5286 313.692 82.6426 313.692 82.7604C313.692 82.8782 313.734 82.9923 313.809 83.0827C314.609 84.4193 314.899 85.9987 314.628 87.5317C314.171 90.2043 312.188 92.7982 308.742 95.2193C305.295 97.6403 302.447 98.4892 299.913 97.9547C298.394 97.6112 297.065 96.6998 296.199 95.4079C296.136 95.3026 296.04 95.2218 295.926 95.1789C295.811 95.136 295.685 95.1336 295.569 95.1721C295.453 95.2051 295.352 95.2788 295.285 95.3799C295.219 95.4809 295.191 95.6025 295.207 95.7223C295.314 96.6919 295.239 97.6728 294.987 98.615C294.658 99.2379 294.19 99.7761 293.618 100.187C293.034 99.7181 292.552 99.135 292.201 98.4735C291.89 97.5582 291.82 96.5784 291.997 95.628C292.013 95.5123 291.992 95.3942 291.935 95.292C291.878 95.1898 291.789 95.109 291.682 95.0621H291.461C291.381 95.0587 291.302 95.0757 291.23 95.1114C291.159 95.1472 291.098 95.2005 291.052 95.2664L290.974 95.3765C290.282 96.5575 289.15 97.4168 287.826 97.7661C285.166 98.5049 281.531 97.4516 277.486 94.7476C269.727 89.6226 273.205 83.46 273.363 83.1928C273.424 83.1021 273.456 82.9954 273.456 82.8862C273.456 82.777 273.424 82.6703 273.363 82.5796C273.294 82.4961 273.201 82.4361 273.097 82.4079C272.992 82.3797 272.882 82.3848 272.78 82.4224C271.883 82.7519 270.936 82.9273 269.979 82.9412C269.279 82.8117 268.62 82.515 268.059 82.0766C268.364 81.3979 268.797 80.7841 269.334 80.2687C270.134 79.7221 271.06 79.3868 272.025 79.294C272.141 79.2652 272.244 79.1985 272.318 79.1045C272.391 79.0105 272.431 78.8945 272.431 78.7752C272.431 78.6558 272.391 78.5399 272.318 78.4458C272.244 78.3518 272.141 78.2851 272.025 78.2564C270.462 77.7195 269.173 76.5901 268.437 75.1122C267.146 72.6754 267.209 69.3269 268.657 65.1766C271.946 55.6497 278.21 57.662 278.478 57.7563C278.546 57.7892 278.621 57.8071 278.697 57.8088C278.773 57.8105 278.849 57.796 278.919 57.7662C278.989 57.7365 279.052 57.6922 279.103 57.6362C279.155 57.5803 279.193 57.514 279.217 57.4419C279.249 57.3549 279.258 57.2608 279.241 57.1696C279.224 57.0784 279.184 56.9932 279.123 56.9231C278.458 56.1922 277.926 55.3518 277.549 54.4392C277.454 53.7577 277.518 53.0634 277.738 52.4112C278.486 52.4376 279.22 52.6197 279.894 52.9457C280.675 53.4921 281.29 54.2427 281.672 55.1152C281.718 55.2294 281.804 55.3229 281.915 55.378C282.025 55.433 282.151 55.4458 282.27 55.4139C282.391 55.3856 282.499 55.3174 282.576 55.2204C282.653 55.1234 282.695 55.0032 282.695 54.8794C282.757 53.1551 283.465 51.5168 284.678 50.2888C286.535 48.3709 289.526 47.3962 293.523 47.3962C297.678 47.3962 300.668 48.3709 302.415 50.3203C303.517 51.5816 304.082 53.2234 303.989 54.8951C303.973 55.0149 304.001 55.1365 304.067 55.2376C304.134 55.3386 304.234 55.4124 304.351 55.4453C304.462 55.4907 304.587 55.4934 304.7 55.4527C304.813 55.4121 304.908 55.3311 304.965 55.2252C305.551 54.2497 306.283 53.3696 307.136 52.6155C307.771 52.3339 308.457 52.1893 309.151 52.1911C309.342 52.9139 309.385 53.6679 309.277 54.4077C308.973 55.3116 308.429 56.116 307.703 56.7344C307.598 56.8153 307.525 56.9304 307.496 57.0597C307.467 57.1889 307.485 57.3242 307.546 57.4419C307.605 57.5459 307.699 57.6262 307.81 57.6692C307.922 57.7122 308.046 57.7152 308.159 57.6777C308.443 57.5991 314.958 55.6811 318.499 65.9783C321.489 74.6406 315.572 78.2407 315.352 78.3821C315.259 78.4345 315.184 78.5133 315.136 78.6086C315.088 78.7038 315.07 78.8111 315.084 78.9167C315.098 79.0234 315.145 79.1231 315.218 79.2019C315.292 79.2808 315.388 79.3349 315.493 79.3568C316.452 79.5583 317.365 79.9369 318.184 80.473C318.655 80.9771 319.01 81.5781 319.223 82.2338C318.615 82.5996 317.942 82.8451 317.24 82.9569ZM314.093 78.8852C313.282 78.4257 312.379 78.1518 311.449 78.0835C311.449 78.0835 316.784 74.9393 314.219 67.5504C311.165 58.6995 305.075 60.3345 305.075 60.3345C305.715 59.7609 306.193 59.0289 306.46 58.2122C306.571 57.4375 306.506 56.6477 306.271 55.9012C305.525 55.8703 304.782 56.0101 304.099 56.31C303.312 56.7659 302.525 58.8096 302.525 58.8096C302.525 58.8096 303.281 52.254 293.57 52.2854C284.128 52.2854 284.395 58.7781 284.395 58.7781C284.054 57.9952 283.511 57.317 282.821 56.813C282.108 56.4941 281.336 56.3281 280.555 56.3257C280.307 57.0256 280.22 57.7728 280.303 58.5109C280.615 59.3119 281.074 60.0477 281.657 60.6804C281.657 60.6804 276.023 58.7153 273.174 66.9688C269.775 76.307 276.07 78.1621 276.07 78.1621C275.219 78.3032 274.411 78.6366 273.709 79.1368C273.164 79.6176 272.697 80.1797 272.324 80.8032C272.975 81.3039 273.719 81.6724 274.512 81.8879C275.314 81.9102 276.114 81.7877 276.872 81.5263C276.872 81.5263 273.63 86.8714 280.335 91.289C289.227 97.1687 291.871 91.6349 291.871 91.6349C291.725 92.4928 291.795 93.3735 292.075 94.1974C292.47 94.8795 293.007 95.4691 293.649 95.9267C294.287 95.5295 294.825 94.9917 295.223 94.3546C295.447 93.5255 295.517 92.6621 295.427 91.8078C295.427 91.8078 298.575 97.2001 306.192 91.8078C313.809 86.4155 310.552 81.0233 310.552 81.0233C311.326 81.4185 312.185 81.6182 313.054 81.6049C313.782 81.4893 314.491 81.2778 315.163 80.9761C314.959 80.2046 314.583 79.4895 314.061 78.8852H314.093ZM287.653 56.6401C288.88 56.2314 292.5 56.7816 293.602 56.7344C294.703 56.6873 298.764 56.0427 299.708 56.8759C300.322 57.4453 300.747 58.1893 300.924 59.0075C301.102 59.8257 301.023 60.6785 300.7 61.4507C300.149 62.9844 299.352 64.4181 298.339 65.6954C296.846 65.0298 295.248 64.6308 293.618 64.5163C291.9 64.6702 290.228 65.1504 288.692 65.9312C287.423 64.3615 286.506 62.539 286 60.5861C285.749 58.448 286.425 57.0488 287.621 56.6401H287.653ZM278.21 77.0773C276.054 76.5271 275.062 75.5052 275.062 74.1532C275.062 72.8012 276.857 69.657 277.187 68.6194C277.518 67.5819 278.305 63.5259 279.422 62.9285C280.164 62.5449 281.007 62.3995 281.835 62.512C282.663 62.6245 283.436 62.9896 284.049 63.5573C285.286 64.6034 286.349 65.8399 287.196 67.2203C286.055 68.4093 285.129 69.7869 284.458 71.292C284.016 72.957 283.893 74.6907 284.096 76.4013C282.194 77.0435 280.176 77.2687 278.179 77.0616L278.21 77.0773ZM291.572 89.2453C290.423 91.1318 289.054 91.855 287.842 91.4462C286.63 91.0375 284.049 88.4278 283.12 87.799C282.192 87.1701 278.572 85.2365 278.32 84.0102C278.176 83.1868 278.288 82.339 278.639 81.5805C278.991 80.8219 279.566 80.1887 280.287 79.7656C281.654 78.9101 283.146 78.2736 284.71 77.8791C285.528 79.3172 286.593 80.5997 287.857 81.6678C289.297 82.5811 290.9 83.2059 292.579 83.5072C292.642 85.4951 292.277 87.4734 291.509 89.3082L291.572 89.2453ZM294.09 79.5298C294.137 79.7791 294.137 80.0351 294.09 80.2844C293.981 80.4824 293.824 80.6499 293.633 80.7717C293.439 80.6365 293.277 80.4592 293.161 80.2529C293.097 80.0001 293.097 79.7354 293.161 79.4826C293.161 79.4826 292.374 81.149 289.683 79.3883C289.417 79.268 289.178 79.0962 288.979 78.8828C288.78 78.6694 288.626 78.4187 288.525 78.1452C288.424 77.8717 288.378 77.5808 288.391 77.2896C288.403 76.9983 288.473 76.7124 288.597 76.4485C288.356 76.5422 288.1 76.5901 287.842 76.59C287.626 76.5389 287.426 76.4364 287.259 76.2913C287.336 76.0694 287.465 75.8696 287.637 75.7096C287.847 75.5522 288.099 75.4593 288.361 75.4423C288.361 75.4423 286.472 74.9393 287.448 72.0781C288.314 69.5941 290.014 70.1915 290.014 70.1915C289.836 69.9998 289.697 69.7756 289.604 69.5313C289.575 69.3081 289.602 69.0811 289.683 68.871C289.922 68.8764 290.158 68.9298 290.376 69.0282C290.587 69.1758 290.755 69.3765 290.863 69.6099C290.863 69.6099 290.863 67.6605 293.633 67.6605C296.403 67.6605 296.34 69.6256 296.34 69.6256C296.494 69.3731 296.685 69.1452 296.907 68.9496C297.115 68.8606 297.341 68.8177 297.568 68.8238C297.615 69.052 297.615 69.2874 297.568 69.5155C297.491 69.7667 297.343 69.9904 297.143 70.1601C297.143 70.1601 298.906 69.5941 299.834 72.2667C300.081 72.8062 300.133 73.4146 299.98 73.9879C299.828 74.5613 299.482 75.0642 299 75.4109C299.253 75.4637 299.494 75.5652 299.708 75.7096C299.863 75.8747 299.976 76.074 300.039 76.2913C299.844 76.4503 299.604 76.5448 299.353 76.5617C299.102 76.5786 298.852 76.517 298.638 76.3856C298.638 76.3856 299.708 77.9577 297.363 79.5298C295.018 81.1019 294.027 79.5298 294.027 79.5298H294.09ZM308.899 84.529C308.144 85.5666 304.886 87.2488 304.02 87.909C303.155 88.5693 300.227 91.4934 298.968 91.3676C298.135 91.2688 297.354 90.9127 296.733 90.3491C296.113 89.7855 295.684 89.0424 295.506 88.2235C295.061 86.6602 294.865 85.0369 294.924 83.4128C296.542 83.0727 298.087 82.45 299.488 81.5735C300.78 80.4403 301.847 79.0752 302.635 77.5489C304.557 78.087 306.343 79.0245 307.876 80.3001C309.324 81.9508 309.607 83.4443 308.868 84.5133L308.899 84.529ZM307.75 77.1087C306.125 76.9805 304.531 76.593 303.029 75.9611C303.271 74.3364 303.229 72.682 302.903 71.0719C302.309 69.4519 301.405 67.9623 300.243 66.6858C301.407 65.071 302.904 63.7253 304.634 62.7398C306.712 61.9538 308.238 62.221 308.946 63.2743C309.655 64.3276 310.095 67.9906 310.41 69.0282C310.725 70.0658 312.456 73.8231 311.905 74.955C311.512 75.698 310.899 76.302 310.15 76.6846C309.401 77.0672 308.552 77.2098 307.719 77.093L307.75 77.1087ZM228.148 125.561C228.145 125.092 228.103 124.623 228.022 124.161C227.959 123.744 227.814 123.344 227.597 122.982C227.394 122.656 227.113 122.386 226.778 122.196C226.378 121.982 225.927 121.878 225.472 121.898C225.171 121.895 224.872 121.948 224.591 122.055C224.305 122.181 224.027 122.322 223.757 122.479C223.492 122.65 223.24 122.839 223.001 123.045C222.765 123.281 222.545 123.47 222.34 123.643L220.593 131.503C220.625 131.713 220.706 131.912 220.829 132.085C220.958 132.305 221.129 132.497 221.333 132.651C221.853 133.069 222.507 133.287 223.174 133.264C223.872 133.262 224.553 133.048 225.126 132.651C225.755 132.243 226.291 131.707 226.7 131.079C227.195 130.304 227.562 129.455 227.786 128.563C228.024 127.628 228.146 126.667 228.148 125.702M230.839 125.702C230.851 126.849 230.637 127.987 230.209 129.051C229.814 130.061 229.25 130.997 228.541 131.818C227.858 132.577 227.042 133.205 226.133 133.673C225.252 134.123 224.275 134.355 223.285 134.349C222.619 134.357 221.954 134.294 221.302 134.16C220.788 134.051 220.291 133.877 219.822 133.641C219.446 133.435 219.102 133.175 218.799 132.871C218.527 132.576 218.285 132.254 218.075 131.912L221.475 117.024C221.451 116.844 221.49 116.661 221.585 116.505C221.601 116.354 221.601 116.201 221.585 116.049C221.591 115.799 221.537 115.551 221.428 115.326C221.314 115.156 221.156 115.02 220.971 114.933C220.749 114.849 220.516 114.797 220.279 114.776L219.413 114.682L219.602 113.896L224.481 113.613L224.607 113.801L222.561 122.542C223.178 121.961 223.878 121.473 224.638 121.096C225.187 120.828 225.79 120.688 226.401 120.687C226.994 120.659 227.586 120.765 228.131 121C228.676 121.234 229.161 121.59 229.548 122.039C230.347 123.088 230.749 124.386 230.681 125.702" fill="#C1002B"/>
</svg>
