<?xml version="1.0" encoding="UTF-8"?>
<svg id="Layer_1" data-name="Layer 1" xmlns="http://www.w3.org/2000/svg" viewBox="0 0 4466.75 633.96">
  <defs>
    <style>
      .cls-1 {
        fill: #0659dd;
      }

      .cls-1, .cls-2 {
        stroke-width: 0px;
      }

      .cls-2 {
        fill: #044c84;
      }
    </style>
  </defs>
  <g>
    <g>
      <path class="cls-2" d="M1086.92,56.5c44.84-15.98,94.09-1.44,126.81,32.16l224.13,230.1c9.58,9.83,30.51,9.83,40.1,0l224.13-230.1c32.72-33.6,81.97-48.14,126.81-32.16,50.23,17.88,75.24,65.63,75.24,117.02v363.84c0,25.68-20.92,46.6-46.6,46.6s-46.6-20.92-46.6-46.6V173.51c0-10.26-2.14-25.25-13.32-29.23-10.14-3.62-21.74,2.15-28.78,9.39l-224.15,230.12c-46.16,47.39-127.43,47.39-173.59,0l-224.14-230.12c-7.04-7.24-18.65-13-28.79-9.39-11.19,3.98-13.32,18.97-13.32,29.23v363.84c0,25.68-20.91,46.6-46.6,46.6s-46.6-20.92-46.6-46.6V173.51c0-51.39,25.01-99.13,75.24-117.02Z"/>
      <path class="cls-2" d="M2105.84,458.51v78.45c0,25.69-20.9,46.58-46.6,46.58s-46.59-20.9-46.59-46.58v-80.05c.87-81.76,67.61-148.46,149.39-149.24h402.73c45,0,82.05-37.05,82.05-82.04s-37.05-82.05-82.05-82.05h-505.53c-25.69,0-46.59-20.9-46.59-46.58s20.9-46.6,46.59-46.6h505.53c96.43,0,175.23,78.79,175.23,175.24,0,63.77-34.46,119.83-85.69,150.48l79.48,137.67c12.82,22.2,5.17,50.74-17.03,63.56-22.2,12.82-50.75,5.17-63.56-17.03l-78.73-136.39c-8.56-14.67-23.18-23.07-40.18-23.07h-370.79c-31.71,0-57.66,25.94-57.66,57.66Z"/>
      <path class="cls-2" d="M2869.65,123.06c-14.4-21.19-8.85-50.23,12.35-64.63,21.2-14.4,50.23-8.85,64.63,12.35l103.2,151.97c37.48,55.19,93.7,84.96,160.4,84.96s122.92-29.78,160.39-84.96l103.22-151.97c14.39-21.2,43.43-26.75,64.63-12.35,21.19,14.39,26.74,43.44,12.35,64.64l-103.21,151.96c-45.88,67.55-112.95,110.12-190.79,122.19v139.72c0,25.68-20.91,46.6-46.6,46.6s-46.59-20.92-46.59-46.6v-139.72c-77.86-12.07-144.92-54.63-190.79-122.19l-103.21-151.97Z"/>
      <path class="cls-2" d="M4323.55,426.97c0-34.74-28.65-63.41-63.39-63.41h-430.17c-28.63,0-56.55-7.83-81.01-22.71-46.7-28.4-75.57-79.02-75.57-133.87,0-86.17,70.41-156.59,156.58-156.59h524.17c25.69,0,46.6,20.91,46.6,46.6s-20.91,46.6-46.6,46.6h-524.17c-34.73,0-63.4,28.66-63.4,63.4s28.67,63.39,63.4,63.39h430.17c28.64,0,56.55,7.83,81.02,22.71,46.69,28.41,75.57,79.02,75.57,133.88,0,86.17-70.41,156.58-156.59,156.58h-524.18c-25.67,0-46.6-20.91-46.6-46.58s20.92-46.6,46.6-46.6h524.18c34.74,0,63.39-28.67,63.39-63.39Z"/>
    </g>
    <g>
      <path class="cls-2" d="M703.81,50.44v80.49h-381.81c-12.04,0-21.81,9.77-21.81,21.77v59.41c-10.89-9.62-20.74-17.4-30.7-24.23-14.26-9.77-28.17-17.21-42.47-22.65-2.41-.92-4.87-1.8-7.32-2.61v-9.93c0-56.5,45.81-102.27,102.3-102.27h381.81Z"/>
      <path class="cls-2" d="M703.81,503.47v80.49h-381.81c-56.5,0-102.3-45.81-102.3-102.3v-11.23c1.11-.38,2.26-.77,3.37-1.15,16.64-5.87,32.58-14.14,48.79-25.34,9.24-6.4,18.4-13.57,28.33-22.31v60.03c0,12.04,9.77,21.81,21.81,21.81h381.81Z"/>
      <rect class="cls-2" x="568.2" y="50" width="299.06" height="80.88" rx="40.44" ry="40.44"/>
      <rect class="cls-2" x="568.2" y="503.08" width="299.06" height="80.88" rx="40.44" ry="40.44"/>
      <rect class="cls-2" x="610.67" y="276.76" width="163.44" height="80.88" rx="40.44" ry="40.44"/>
    </g>
  </g>
  <path class="cls-1" d="M308.66,349.17c-.3.4-.55.84-.9,1.19-10.24,10.08-20.39,20.25-30.99,29.96-10.05,9.22-20.45,18-31.69,25.76-11.83,8.17-24.35,15.03-37.95,19.84-9.02,3.19-18.27,5.39-27.77,6.53-8.59,1.03-17.2,1.23-25.84.59-12.52-.92-24.65-3.54-36.25-8.38-26.13-10.9-44.87-29.44-56.54-55.15-4.44-9.79-7.32-20.05-9.01-30.66-1.39-8.75-2.04-17.56-1.6-26.41,1.57-31.84,13.89-58.8,37.21-80.57,15.14-14.13,33.03-23.26,53.16-28.01,11.15-2.63,22.48-3.67,33.92-3.2,12.27.51,24.1,3.14,35.56,7.52,11.71,4.47,22.55,10.55,32.86,17.63,10.88,7.46,20.99,15.9,30.74,24.77,10.49,9.53,20.5,19.54,30.59,29.48,1.32,1.3,2.65,2.61,3.98,3.91.74.73.63.87,1.53,0,4.86-4.71,9.72-9.43,14.59-14.14,8.84-8.56,17.77-17.03,27.12-25.03,10.81-9.25,22.11-17.82,34.43-24.99,11.94-6.94,24.53-12.33,37.98-15.6,6.26-1.52,12.61-2.56,19.03-3.13,7.05-.62,14.11-.7,21.16-.18,21.94,1.62,42.09,8.32,59.82,21.58,15.97,11.95,27.42,27.39,34.9,45.82,3.82,9.41,6.32,19.18,7.73,29.23,1.22,8.69,1.65,17.43,1.15,26.19-.97,16.63-5.17,32.41-13.06,47.1-15.66,29.15-39.57,48.24-71.2,57.71-8.37,2.51-16.95,3.92-25.66,4.54-6.56.47-13.12.5-19.67-.12-11.63-1.1-22.8-4.03-33.59-8.47-11.43-4.71-22.03-10.89-32.12-17.98-10.73-7.54-20.71-16-30.34-24.87-11-10.13-21.48-20.79-32.05-31.36-.32-.32-.57-.71-1.23-1.07ZM277.36,316.99c-.23-.24-.39-.42-.57-.59-6.32-5.88-12.43-11.97-18.59-18.01-7.19-7.05-14.44-14.05-22.1-20.6-8.08-6.91-16.53-13.28-25.84-18.48-10.71-5.98-22.03-10.05-34.32-11.22-7.67-.73-15.26-.3-22.76,1.42-30.1,6.94-52,33.34-53.52,64.24-.42,8.47.56,16.81,2.92,24.97,7.86,27.15,30.47,45.89,60.13,47.42,9.7.5,19.18-.88,28.44-3.78,9.95-3.12,19.16-7.79,27.91-13.41,10.45-6.72,19.99-14.59,29.14-22.97,9.96-9.13,19.34-18.84,28.75-28.51.11-.12.21-.25.4-.48ZM340.48,316.97c.21.22.39.44.6.64,6.65,6.19,13.07,12.61,19.56,18.97,7.29,7.13,14.64,14.2,22.45,20.77,8.2,6.9,16.79,13.23,26.26,18.3,9.84,5.26,20.21,8.9,31.36,10.11,7.99.87,15.9.5,23.75-1.27,28.94-6.5,51.22-31.67,53.57-62.37.76-9.85-.37-19.54-3.44-28.95-4.7-14.41-13.12-26.09-25.8-34.53-10.96-7.29-23.15-10.65-36.24-10.89-9.03-.17-17.84,1.29-26.43,4.04-9.81,3.14-18.9,7.78-27.53,13.34-10.13,6.53-19.41,14.14-28.29,22.25-10.23,9.33-19.84,19.27-29.48,29.19-.11.11-.2.25-.33.41Z"/>
</svg>