<svg xmlns="http://www.w3.org/2000/svg" viewBox="0 0 124.68 63.13"><defs><style>.cls-1,.cls-4{fill:none;stroke:#169cd8;}.cls-1{stroke-linecap:round;stroke-linejoin:round;stroke-width:2.1px;}.cls-2{fill:#585857;}.cls-3{fill:#fff;}.cls-4{stroke-miterlimit:10;stroke-width:1.2px;}</style></defs><g id="Layer_2" data-name="Layer 2"><g id="Layer_1-2" data-name="Layer 1"><path class="cls-1" d="M50,15c.06-3.4,0-5,0-5.65a.61.61,0,0,0-.55-.54A68.24,68.24,0,0,1,37.81,6.3a73.11,73.11,0,0,1-12-5.16.68.68,0,0,0-.7,0c-1.1.69-4.4,2.53-11.9,5.15A68.24,68.24,0,0,1,1.66,8.83a.61.61,0,0,0-.55.54c-.08,1.3-.19,5.8.47,20C2.6,51.19,23.8,61.28,25.46,62v0l.05,0,.06,0v0a43.51,43.51,0,0,0,6.1-3.54"/><polygon points="13.62 22.03 26.27 22.03 26.27 25.98 18.82 25.98 18.82 28.7 25.8 28.7 25.8 32.64 18.82 32.64 18.82 37.76 13.62 37.76 13.62 22.03"/><path d="M40.42,22.75a7.74,7.74,0,0,1,3.08,2.92,8,8,0,0,1,1.11,4.19A8.21,8.21,0,0,1,43.5,34.1a7.74,7.74,0,0,1-3.08,2.95,9.83,9.83,0,0,1-8.88,0,7.77,7.77,0,0,1-3.09-2.95,8.21,8.21,0,0,1-1.11-4.24,8.11,8.11,0,0,1,1.11-4.22,7.72,7.72,0,0,1,3.09-2.9,10,10,0,0,1,8.88,0m-6,3.78a3.68,3.68,0,0,0-1.24,1.38,4.24,4.24,0,0,0-.46,2,4.32,4.32,0,0,0,.46,2,3.67,3.67,0,0,0,1.24,1.4,3,3,0,0,0,1.67.52,2.81,2.81,0,0,0,1.63-.51,3.37,3.37,0,0,0,1.17-1.4,4.65,4.65,0,0,0,.43-2,4.56,4.56,0,0,0-.43-2,3.31,3.31,0,0,0-1.17-1.38A2.87,2.87,0,0,0,36.05,26a3,3,0,0,0-1.67.5"/><path d="M55.47,37.76l-1.89-4.09H51.63v4.09h-5.2V22H54a7.51,7.51,0,0,1,5,1.47,5.13,5.13,0,0,1,1.75,4.16,6.44,6.44,0,0,1-.64,3,4.85,4.85,0,0,1-1.85,2l3.09,5.12Zm-3.84-8H54a1.7,1.7,0,0,0,1.32-.51,2,2,0,0,0,.46-1.4,1.94,1.94,0,0,0-.46-1.36A1.75,1.75,0,0,0,54,26h-2.4Z"/><polygon points="62.04 22.03 76.19 22.03 76.19 26.14 71.71 26.14 71.71 37.76 66.5 37.76 66.5 26.14 62.04 26.14 62.04 22.03"/><rect x="77.78" y="22.03" width="5.2" height="15.72"/><path d="M94.51,26.18A8,8,0,0,0,92,25.62c-.65,0-1,.23-1,.7a.92.92,0,0,0,.62.83,13.33,13.33,0,0,0,2,.65,23.64,23.64,0,0,1,2.79.94,5.05,5.05,0,0,1,2,1.49,4.12,4.12,0,0,1,.82,2.68,4.55,4.55,0,0,1-.88,2.86,5.3,5.3,0,0,1-2.39,1.72,9.59,9.59,0,0,1-3.34.56,13.59,13.59,0,0,1-4.21-.69,11.91,11.91,0,0,1-3.66-1.87l1.93-3.92a10.77,10.77,0,0,0,3,1.76,8.4,8.4,0,0,0,3,.72,1.72,1.72,0,0,0,.92-.21.71.71,0,0,0,.34-.66.92.92,0,0,0-.64-.84,11.43,11.43,0,0,0-2-.64,20.22,20.22,0,0,1-2.77-.89,4.82,4.82,0,0,1-1.91-1.42,3.87,3.87,0,0,1-.81-2.58,4.61,4.61,0,0,1,.83-2.75,5.26,5.26,0,0,1,2.35-1.8,9.26,9.26,0,0,1,3.55-.63,13.21,13.21,0,0,1,3.66.52,12.19,12.19,0,0,1,3.18,1.36l-1.89,4a17.88,17.88,0,0,0-2.85-1.3"/><path class="cls-2" d="M17.91,47.28H16.46v-5h1.45a4.86,4.86,0,0,1,1.21.12,1.48,1.48,0,0,1,1.11,1.16,4.53,4.53,0,0,1,.13,1.2,2.68,2.68,0,0,1-.58,1.9,2.51,2.51,0,0,1-1.87.6m1.42-4a1.08,1.08,0,0,0-.51-.31,3.54,3.54,0,0,0-.91-.09h-.77v3.73h.77a1.81,1.81,0,0,0,1.37-.42,2.1,2.1,0,0,0,.39-1.44,4.44,4.44,0,0,0-.08-.91,1.39,1.39,0,0,0-.26-.56"/><path class="cls-2" d="M22.93,47.28h-.72l2-5h.7l1.95,5h-.72l-.45-1.2H23.38Zm1.59-4.36-.19.59c-.07.2-.14.41-.22.61l-.51,1.36h1.84l-.51-1.36c-.11-.29-.19-.52-.25-.7s-.12-.35-.16-.5"/><polygon class="cls-2" points="31.9 42.3 31.9 42.91 30.25 42.91 30.25 47.28 29.57 47.28 29.57 42.91 27.92 42.91 27.92 42.3 31.9 42.3"/><path class="cls-2" d="M33.7,47.28H33l2-5h.7l1.94,5h-.71l-.46-1.2H34.15Zm1.59-4.36c0,.18-.12.38-.19.59s-.14.41-.22.61l-.5,1.36h1.83l-.51-1.36c-.1-.29-.19-.52-.25-.7l-.16-.5"/><path class="cls-2" d="M43.27,45.67v1.61H42.6v-5h1.69a2.32,2.32,0,0,1,1.51.38,1.52,1.52,0,0,1,.46,1.25,1.68,1.68,0,0,1-.48,1.31,2.15,2.15,0,0,1-1.47.43Zm2.31-1.74a1,1,0,0,0-.3-.79,1.68,1.68,0,0,0-1-.23h-1v2.16h1a1.47,1.47,0,0,0,1-.27,1.12,1.12,0,0,0,.3-.87"/><path class="cls-2" d="M49.34,45.49v1.79h-.68v-5h1.7a2.46,2.46,0,0,1,1.51.36,1.42,1.42,0,0,1,.46,1.19,1.69,1.69,0,0,1-.29,1,1.47,1.47,0,0,1-.88.52l1.3,1.87h-.81l-1.21-1.79Zm2.3-1.64a.82.82,0,0,0-.29-.72,1.69,1.69,0,0,0-1-.22h-1v2h1a1.58,1.58,0,0,0,1-.25,1,1,0,0,0,.3-.8"/><path class="cls-2" d="M59.05,44.78a3,3,0,0,1-.52,2,2.16,2.16,0,0,1-1.7.6,2.21,2.21,0,0,1-1.75-.56,3.13,3.13,0,0,1-.48-2,3,3,0,0,1,.53-2,2.14,2.14,0,0,1,1.7-.6,2.19,2.19,0,0,1,1.74.56,3.13,3.13,0,0,1,.48,2m-3.53,1.44a.89.89,0,0,0,.45.38,2.68,2.68,0,0,0,.86.11A1.43,1.43,0,0,0,58,46.28a2.6,2.6,0,0,0,.32-1.5,7,7,0,0,0,0-.89,1.75,1.75,0,0,0-.18-.56.88.88,0,0,0-.44-.39,2.63,2.63,0,0,0-.86-.11,1.44,1.44,0,0,0-1.22.43,2.58,2.58,0,0,0-.32,1.52,5.42,5.42,0,0,0,.05.88,1.75,1.75,0,0,0,.18.56"/><polygon class="cls-2" points="64.97 42.3 64.97 42.91 63.32 42.91 63.32 47.28 62.64 47.28 62.64 42.91 60.99 42.91 60.99 42.3 64.97 42.3"/><polygon class="cls-2" points="70.56 46.65 70.56 47.28 67.25 47.28 67.25 42.3 70.49 42.3 70.49 42.91 67.93 42.91 67.93 44.44 70.19 44.44 70.19 45.03 67.93 45.03 67.93 46.65 70.56 46.65"/><path class="cls-2" d="M74.89,46.71a3.4,3.4,0,0,0,.69-.08,3.28,3.28,0,0,0,.67-.2V47a4.83,4.83,0,0,1-.77.25,4.08,4.08,0,0,1-.71.06,1.92,1.92,0,0,1-1.61-.59,3.22,3.22,0,0,1-.47-2,2.91,2.91,0,0,1,.54-2A2.23,2.23,0,0,1,75,42.22h.65a3.73,3.73,0,0,1,.52.06v.59l-.56,0H75a1.51,1.51,0,0,0-1.24.44,2.5,2.5,0,0,0-.35,1.51,2.6,2.6,0,0,0,.32,1.5,1.39,1.39,0,0,0,1.19.43"/><polygon class="cls-2" points="82.15 42.3 82.15 42.91 80.5 42.91 80.5 47.28 79.82 47.28 79.82 42.91 78.17 42.91 78.17 42.3 82.15 42.3"/><rect class="cls-2" x="84.43" y="42.3" width="0.68" height="4.98"/><path class="cls-2" d="M92.07,44.78a3,3,0,0,1-.52,2,2.12,2.12,0,0,1-1.69.6,2.2,2.2,0,0,1-1.75-.56,3.13,3.13,0,0,1-.48-2,3,3,0,0,1,.52-2,2.16,2.16,0,0,1,1.71-.6,2.19,2.19,0,0,1,1.74.56,3.14,3.14,0,0,1,.47,2m-3.52,1.44a.85.85,0,0,0,.45.38,2.63,2.63,0,0,0,.86.11,1.41,1.41,0,0,0,1.2-.43,2.51,2.51,0,0,0,.33-1.5,7,7,0,0,0,0-.89,1.75,1.75,0,0,0-.18-.56.88.88,0,0,0-.44-.39,2.63,2.63,0,0,0-.86-.11,1.44,1.44,0,0,0-1.22.43,2.57,2.57,0,0,0-.33,1.52,5.27,5.27,0,0,0,.06.88,1.75,1.75,0,0,0,.18.56"/><polygon class="cls-2" points="98.67 42.3 98.67 47.28 97.99 47.28 95.23 43.4 95.23 47.28 94.59 47.28 94.59 42.3 95.28 42.3 98.04 46.23 98.04 42.3 98.67 42.3"/><path class="cls-2" d="M44.12,55.88a3.34,3.34,0,0,0,.68-.07,3.28,3.28,0,0,0,.67-.21v.61a3.7,3.7,0,0,1-.77.24,3.26,3.26,0,0,1-.7.07,2,2,0,0,1-1.62-.59,3.27,3.27,0,0,1-.47-2A2.85,2.85,0,0,1,42.46,52a2.2,2.2,0,0,1,1.73-.62l.66,0,.51.05v.6a5.09,5.09,0,0,0-.56,0l-.61,0a1.53,1.53,0,0,0-1.24.44A2.52,2.52,0,0,0,42.6,54a2.66,2.66,0,0,0,.32,1.51,1.42,1.42,0,0,0,1.2.42"/><path class="cls-2" d="M52,54a3,3,0,0,1-.52,2,2.16,2.16,0,0,1-1.7.6A2.22,2.22,0,0,1,48.06,56a3.07,3.07,0,0,1-.49-2,2.93,2.93,0,0,1,.53-2,2.12,2.12,0,0,1,1.7-.61,2.22,2.22,0,0,1,1.74.56A3.15,3.15,0,0,1,52,54M48.5,55.39a.82.82,0,0,0,.44.38,2.42,2.42,0,0,0,.86.11A1.46,1.46,0,0,0,51,55.46,2.58,2.58,0,0,0,51.33,54a5.42,5.42,0,0,0,0-.88,1.82,1.82,0,0,0-.18-.57.83.83,0,0,0-.44-.38A2.35,2.35,0,0,0,49.8,52a1.48,1.48,0,0,0-1.22.43A2.7,2.7,0,0,0,48.26,54a7,7,0,0,0,.05.89,1.48,1.48,0,0,0,.19.55"/><polygon class="cls-2" points="59.24 51.47 59.24 56.46 58.6 56.46 58.6 52.53 57.18 55.46 56.6 55.46 55.17 52.52 55.17 56.46 54.54 56.46 54.54 51.47 55.39 51.47 56.9 54.64 58.42 51.47 59.24 51.47"/><path class="cls-2" d="M62.65,54.84v1.62H62v-5h1.7a2.38,2.38,0,0,1,1.51.38,1.53,1.53,0,0,1,.46,1.25,1.66,1.66,0,0,1-.48,1.31,2.13,2.13,0,0,1-1.47.43ZM65,53.1a.92.92,0,0,0-.29-.78,1.6,1.6,0,0,0-1-.24h-1v2.17h1a1.47,1.47,0,0,0,1-.27A1.14,1.14,0,0,0,65,53.1"/><polygon class="cls-2" points="71.09 55.82 71.09 56.46 68.04 56.46 68.04 51.47 68.72 51.47 68.72 55.82 71.09 55.82"/><rect class="cls-2" x="73.38" y="51.47" width="0.68" height="4.98"/><path class="cls-2" d="M77,56.46h-.72l2-5H79l1.94,5h-.71l-.46-1.2H77.45Zm1.59-4.37c0,.19-.12.38-.19.59s-.14.41-.22.62l-.5,1.36h1.83L79,53.3l-.25-.71-.16-.5"/><polygon class="cls-2" points="87.22 51.47 87.22 56.46 86.53 56.46 83.77 52.58 83.77 56.46 83.14 56.46 83.14 51.47 83.82 51.47 86.58 55.41 86.58 51.47 87.22 51.47"/><path class="cls-2" d="M91.93,55.88a3.37,3.37,0,0,0,.69-.07,3.49,3.49,0,0,0,.67-.21v.61a3.89,3.89,0,0,1-.77.24,3.35,3.35,0,0,1-.71.07,2,2,0,0,1-1.61-.59,3.2,3.2,0,0,1-.47-2A2.9,2.9,0,0,1,90.27,52,2.22,2.22,0,0,1,92,51.39l.65,0,.52.05v.6a5.27,5.27,0,0,0-.56,0L92,52a1.51,1.51,0,0,0-1.24.44A2.52,2.52,0,0,0,90.42,54a2.66,2.66,0,0,0,.32,1.51,1.42,1.42,0,0,0,1.19.42"/><polygon class="cls-2" points="98.97 55.82 98.97 56.46 95.66 56.46 95.66 51.47 98.9 51.47 98.9 52.08 96.34 52.08 96.34 53.61 98.6 53.61 98.6 54.21 96.34 54.21 96.34 55.82 98.97 55.82"/><path class="cls-3" d="M118.34,57.33h-11.1a2.65,2.65,0,0,1-2.65-2.64V43.59A2.65,2.65,0,0,1,107.24,41h11.1A2.64,2.64,0,0,1,121,43.59v11.1a2.64,2.64,0,0,1-2.64,2.64"/><rect class="cls-4" x="104.59" y="40.95" width="16.39" height="16.39" rx="2.64"/><path d="M112.33,54a1,1,0,0,1-.71-.31L108.5,50.2a1,1,0,0,1,.07-1.35,1,1,0,0,1,1.34.07l2.34,2.57L123,37a.94.94,0,0,1,1.33-.2,1,1,0,0,1,.2,1.33l-11.4,15.45a.94.94,0,0,1-.72.39h0"/></g></g></svg>