<svg width="150" height="150" viewBox="0 0 150 150" fill="none" xmlns="http://www.w3.org/2000/svg">
<g clip-path="url(#clip0_165_2)">
<path d="M149.5 129.5H0.5V20.5H149.5V129.5Z" fill="#0B2A63"/>
<path d="M1 21V129H149V21H1ZM0 20H150V130H0V20Z" fill="white"/>
<path d="M59.684 94.1438C59.2003 94.1504 58.7198 94.0649 58.2681 93.8918C57.8738 93.7432 57.5158 93.512 57.218 93.2138C56.9349 92.922 56.6988 92.5881 56.5181 92.2238C56.3327 91.8536 56.1982 91.4601 56.118 91.0538C55.958 90.2255 55.958 89.3742 56.118 88.5458C56.1982 88.1396 56.3327 87.7461 56.5181 87.3758C56.6988 87.0116 56.9349 86.6777 57.218 86.3858C57.5158 86.0877 57.8738 85.8565 58.2681 85.7078C58.7198 85.5348 59.2003 85.4493 59.684 85.4558C60.2761 85.4432 60.8625 85.5728 61.3941 85.8338C61.8631 86.0644 62.2616 86.4167 62.548 86.8538C62.8239 87.2814 63.0323 87.7489 63.166 88.2398C63.438 89.2621 63.438 90.3376 63.166 91.3598C63.0323 91.8508 62.8239 92.3183 62.548 92.7458C62.2621 93.1827 61.8643 93.535 61.396 93.7658C60.8639 94.0272 60.2768 94.1568 59.684 94.1438ZM59.684 92.7638C60.0434 92.7706 60.3972 92.6749 60.704 92.4878C60.9937 92.3105 61.2317 92.0602 61.3941 91.7618C61.5574 91.4634 61.6805 91.1446 61.76 90.8139C61.8401 90.4818 61.8803 90.1414 61.8801 89.7999C61.8817 89.4463 61.8414 89.0939 61.76 88.7498C61.6812 88.4208 61.5581 88.1039 61.3941 87.8078C61.2332 87.5151 60.9971 87.2707 60.71 87.0998C60.399 86.9188 60.0439 86.8274 59.684 86.8358C59.2086 86.8219 58.747 86.9966 58.4001 87.3218C58.068 87.627 57.8218 88.0138 57.6861 88.4438C57.4518 89.2234 57.4249 90.0507 57.6081 90.8438C57.6862 91.1751 57.8094 91.494 57.974 91.7918C58.1349 92.0846 58.371 92.329 58.6581 92.4998C58.9691 92.6809 59.3242 92.7723 59.684 92.7638ZM66.8001 89.0919V93.9998H65.4001V89.0919H64.5081V87.8678H65.3961V86.9078C65.3678 86.7106 65.3859 86.5095 65.4488 86.3204C65.5118 86.1314 65.618 85.9596 65.7589 85.8187C65.8998 85.6778 66.0716 85.5716 66.2606 85.5086C66.4497 85.4457 66.6508 85.4276 66.848 85.4558C67.2982 85.4464 67.744 85.5451 68.1481 85.7439V86.8998C67.8718 86.7769 67.5743 86.709 67.2721 86.6998C67.2075 86.6915 67.142 86.6982 67.0805 86.7196C67.0191 86.7409 66.9635 86.7763 66.918 86.8229C66.8726 86.8694 66.8387 86.9259 66.8189 86.9879C66.7991 87.0499 66.794 87.1156 66.8041 87.1798V87.8798H68.1481V89.0919H66.8001ZM74.708 86.7918C74.6316 86.8699 74.54 86.9314 74.4389 86.9727C74.3378 87.014 74.2293 87.0341 74.1201 87.0318C73.8973 87.0318 73.6836 86.9434 73.5261 86.7858C73.3686 86.6283 73.28 86.4146 73.28 86.1918C73.278 86.0821 73.2988 85.9732 73.3411 85.8719C73.3835 85.7707 73.4465 85.6794 73.5261 85.6038C73.6039 85.526 73.6966 85.4647 73.7986 85.4234C73.9007 85.3822 74.01 85.3619 74.1201 85.3638C74.2291 85.3628 74.3372 85.3835 74.4382 85.4247C74.5391 85.4659 74.6308 85.5269 74.7079 85.604C74.785 85.6811 74.846 85.7728 74.8872 85.8737C74.9284 85.9747 74.9491 86.0828 74.948 86.1918C74.9502 86.4145 74.8639 86.6288 74.708 86.7878V86.7918ZM71.0361 89.0919V93.9998H69.6361V89.0919H68.7481V87.8678H69.6361V86.9078C69.6078 86.7106 69.6259 86.5095 69.6888 86.3204C69.7518 86.1314 69.858 85.9596 69.9989 85.8187C70.1398 85.6778 70.3116 85.5716 70.5006 85.5086C70.6897 85.4457 70.8908 85.4276 71.088 85.4558C71.5382 85.4464 71.984 85.5451 72.3881 85.7439V86.8998C72.1118 86.7769 71.8143 86.709 71.5121 86.6998C71.4475 86.6915 71.382 86.6982 71.3205 86.7196C71.2591 86.7409 71.2035 86.7763 71.1581 86.8229C71.1126 86.8694 71.0787 86.9259 71.0589 86.9879C71.0391 87.0499 71.034 87.1156 71.044 87.1798V87.8798H72.3881V89.0919H71.0361ZM73.4121 93.9998V87.8678H74.812V93.9998H73.4121ZM79.0641 94.1438C78.6881 94.161 78.3132 94.0933 77.9669 93.9458C77.6207 93.7983 77.3121 93.5748 77.0641 93.2918C76.5396 92.6241 76.2778 91.7874 76.3281 90.9398C76.2792 90.0903 76.5416 89.252 77.0661 88.5818C77.3132 88.2973 77.6215 88.0724 77.9678 87.9238C78.3141 87.7752 78.6896 87.7069 79.0661 87.7238C79.6065 87.6731 80.1474 87.8151 80.5932 88.1247C81.039 88.4344 81.3609 88.8917 81.502 89.4158L80.168 89.8598C80.1056 89.6289 79.9678 89.4256 79.7764 89.282C79.5851 89.1385 79.3512 89.0631 79.112 89.0678C78.9167 89.0599 78.7225 89.1016 78.5476 89.189C78.3728 89.2765 78.2229 89.4068 78.112 89.5678C77.8521 89.975 77.7262 90.4534 77.752 90.9358C77.7267 91.4117 77.8505 91.8836 78.1061 92.2859C78.2097 92.4432 78.3516 92.5716 78.5185 92.6591C78.6853 92.7465 78.8717 92.7901 79.06 92.7859C79.3221 92.7977 79.5796 92.7146 79.7854 92.5518C79.9911 92.3891 80.1312 92.1576 80.18 91.8998L81.5241 92.3078C81.4066 92.8603 81.0923 93.3512 80.6397 93.689C80.1871 94.0268 79.6271 94.1885 79.0641 94.1438ZM84.3321 86.7878C84.2556 86.8659 84.164 86.9274 84.0629 86.9687C83.9618 87.01 83.8533 87.0301 83.7441 87.0278C83.5213 87.0278 83.3076 86.9393 83.1501 86.7818C82.9926 86.6243 82.904 86.4106 82.904 86.1879C82.9017 86.0783 82.9222 85.9694 82.9642 85.8682C83.0062 85.7669 83.0688 85.6756 83.1481 85.5998C83.2259 85.522 83.3186 85.4607 83.4206 85.4194C83.5227 85.3782 83.632 85.3579 83.742 85.3598C83.8511 85.3588 83.9592 85.3795 84.0602 85.4207C84.1611 85.4619 84.2528 85.5229 84.3299 85.6C84.407 85.6771 84.468 85.7688 84.5092 85.8697C84.5504 85.9707 84.5711 86.0788 84.57 86.1879C84.5719 86.2986 84.5518 86.4086 84.511 86.5116C84.4701 86.6146 84.4093 86.7085 84.3321 86.7878ZM83.0361 93.9998V87.8678H84.436V93.9998H83.0361ZM89.7481 93.9998V93.5079C89.5355 93.722 89.2805 93.8892 88.9994 93.9987C88.7183 94.1082 88.4174 94.1577 88.116 94.1438C87.5352 94.1687 86.9655 93.9786 86.516 93.6098C86.3069 93.421 86.1429 93.1877 86.0359 92.9271C85.9289 92.6664 85.8818 92.3851 85.8981 92.1038C85.8807 91.8136 85.9355 91.5236 86.0577 91.2597C86.1798 90.9959 86.3655 90.7664 86.598 90.5919C87.0933 90.2391 87.6903 90.0579 88.298 90.0758C88.8012 90.0576 89.3006 90.1691 89.7481 90.3998V90.0758C89.7624 89.9211 89.7436 89.7651 89.6929 89.6182C89.6422 89.4713 89.5608 89.3368 89.4541 89.2238C89.1947 89.0276 88.8722 88.9337 88.548 88.9598C87.8948 88.9565 87.2569 89.1579 86.724 89.5359L86.2881 88.3998C87.0014 87.9376 87.8384 87.7032 88.6881 87.7278C88.972 87.7244 89.2555 87.7505 89.534 87.8058C89.8007 87.8669 90.056 87.9702 90.2901 88.1118C90.5641 88.2806 90.7765 88.5331 90.8961 88.8318C91.0513 89.2207 91.1249 89.6373 91.112 90.0558V93.9998H89.7481ZM88.38 92.9078C88.6366 92.9115 88.891 92.861 89.1267 92.7597C89.3625 92.6584 89.5742 92.5085 89.7481 92.3198V91.5278C89.3641 91.3531 88.9458 91.2669 88.5241 91.2758C88.2077 91.2607 87.893 91.3297 87.612 91.4758C87.5015 91.5369 87.4102 91.6277 87.3487 91.738C87.2872 91.8483 87.2579 91.9737 87.264 92.0998C87.2605 92.2139 87.2849 92.3271 87.3351 92.4296C87.3853 92.5321 87.4598 92.6207 87.5521 92.6879C87.7961 92.8476 88.0849 92.9247 88.376 92.9078H88.38ZM92.848 93.9998V85.9998L94.2481 85.3398V93.9998H92.848Z" fill="white"/>
<path d="M107.347 56.1582C106.971 56.1582 106.596 56.1203 106.227 56.0452C105.434 55.8821 104.683 55.5547 104.024 55.084C103.365 54.6132 102.812 54.0097 102.4 53.3122L102.379 53.2742C102.177 52.8866 102.129 52.4363 102.247 52.0151C102.365 51.594 102.639 51.2335 103.013 51.0072C103.27 50.8527 103.565 50.7711 103.865 50.7712C104.164 50.772 104.457 50.8522 104.715 51.0037C104.973 51.1552 105.186 51.3724 105.332 51.6332C105.349 51.6632 105.369 51.6962 105.389 51.7272L105.568 51.9702L105.807 52.2122C106.119 52.4817 106.496 52.6641 106.901 52.7412C107.228 52.8036 107.564 52.7976 107.889 52.7234C108.213 52.6492 108.519 52.5085 108.786 52.3102C109.059 52.1142 109.286 51.8601 109.45 51.5662C109.614 51.2723 109.71 50.9459 109.733 50.6102C109.76 50.2761 109.715 49.94 109.602 49.6245C109.489 49.3089 109.31 49.0211 109.077 48.7802C109.077 48.7802 104.012 43.5192 103.785 43.2802C103.563 43.054 103.359 42.8113 103.174 42.5542C102.498 41.5614 102.205 40.3576 102.347 39.1652C102.405 38.3408 102.649 37.5402 103.06 36.8232C103.06 36.8232 103.292 36.4302 103.36 36.3312C103.694 35.8895 104.083 35.4929 104.519 35.1512C104.824 34.926 105.149 34.7305 105.491 34.5672C106.754 33.9543 108.202 33.8437 109.543 34.2576C110.884 34.6716 112.018 35.5792 112.716 36.7972C112.829 36.9867 112.903 37.1971 112.933 37.4159C112.963 37.6346 112.949 37.8571 112.891 38.0702C112.834 38.2873 112.733 38.4908 112.596 38.6684C112.459 38.846 112.287 38.9942 112.091 39.1042C111.842 39.2508 111.559 39.3278 111.27 39.3272C110.973 39.3267 110.681 39.2471 110.425 39.0965C110.169 38.9459 109.957 38.7297 109.812 38.4702C109.654 38.2021 109.441 37.9707 109.187 37.791C108.933 37.6114 108.643 37.4878 108.338 37.4282C108.029 37.3679 107.71 37.3723 107.403 37.4412C107.095 37.51 106.805 37.6418 106.551 37.8282C106.306 38.0162 106.105 38.254 105.959 38.5258C105.813 38.7977 105.726 39.0974 105.705 39.4052C105.679 39.7163 105.719 40.0293 105.822 40.3239C105.926 40.6184 106.09 40.8878 106.305 41.1142L111.483 46.4542C112.264 47.2649 112.789 48.2876 112.993 49.3947C113.197 50.5019 113.07 51.6446 112.629 52.6803C112.188 53.7161 111.452 54.5991 110.513 55.2193C109.573 55.8395 108.472 56.1695 107.346 56.1682" fill="white"/>
<path d="M90.9596 37.363C90.3747 37.3635 89.8138 37.5961 89.4 38.0096C88.9863 38.4232 88.7534 38.984 88.7526 39.569V50.585C88.7496 50.8757 88.8046 51.164 88.9144 51.4332C89.0242 51.7023 89.1866 51.9469 89.3922 52.1524C89.5978 52.358 89.8423 52.5204 90.1114 52.6302C90.3806 52.7401 90.669 52.7951 90.9596 52.792C91.5447 52.7912 92.1056 52.5584 92.5194 52.1447C92.9331 51.731 93.1659 51.1701 93.1666 50.585V39.57C93.1591 38.9871 92.9242 38.4302 92.5119 38.0181C92.0996 37.6059 91.5426 37.3702 90.9596 37.363ZM90.9596 56.155C89.4831 56.1534 88.0674 55.5662 87.0232 54.5222C85.979 53.4781 85.3915 52.0626 85.3896 50.586V39.57C85.3896 38.093 85.9764 36.6765 87.0208 35.6321C88.0652 34.5877 89.4817 34.001 90.9586 34.001C92.4356 34.001 93.8521 34.5877 94.8965 35.6321C95.9409 36.6765 96.5276 38.093 96.5276 39.57V50.586C96.5258 52.0624 95.9385 53.4778 94.8945 54.5218C93.8505 55.5658 92.4361 56.1531 90.9596 56.155Z" fill="white"/>
<path d="M69.1722 34.9541L69.1572 34.9221C69.0103 34.6464 68.7911 34.4159 68.5232 34.2553C68.2552 34.0946 67.9486 34.0099 67.6362 34.0101C67.5223 34.0095 67.4086 34.0212 67.2972 34.0451C66.9196 34.1196 66.58 34.3241 66.3374 34.623C66.0948 34.9218 65.9645 35.2962 65.9692 35.6811V36.0641L75.2162 55.2321C75.3604 55.5048 75.5748 55.7341 75.8373 55.8962C76.0998 56.0583 76.4008 56.1473 76.7092 56.1541C76.8391 56.1544 76.9685 56.1379 77.0942 56.1051C77.4679 56.0267 77.8027 55.821 78.0416 55.5232C78.2805 55.2254 78.4087 54.8539 78.4042 54.4721V54.1101L69.1732 34.9531M78.4322 51.7761V35.6761C78.4322 35.2303 78.2551 34.8027 77.9399 34.4875C77.6246 34.1722 77.197 33.9951 76.7512 33.9951C76.3054 33.9951 75.8778 34.1722 75.5626 34.4875C75.2473 34.8027 75.0702 35.2303 75.0702 35.6761V44.7931L78.4322 51.7761ZM69.3112 45.3611V54.4721C69.3112 54.9179 69.1341 55.3455 68.8189 55.6608C68.5036 55.976 68.076 56.1531 67.6302 56.1531C67.1844 56.1531 66.7568 55.976 66.4416 55.6608C66.1263 55.3455 65.9492 54.9179 65.9492 54.4721V38.3851L69.3112 45.3611Z" fill="white"/>
<path d="M53.3639 37.363C52.7789 37.3635 52.218 37.5961 51.8043 38.0096C51.3905 38.4232 51.1577 38.984 51.1569 39.569V50.585C51.1692 51.162 51.4071 51.7113 51.8196 52.1151C52.232 52.5189 52.7862 52.745 53.3634 52.745C53.9406 52.745 54.4949 52.5189 54.9073 52.1151C55.3198 51.7113 55.5577 51.162 55.5699 50.585V39.57C55.5617 38.9873 55.3265 38.4309 54.9143 38.0189C54.5022 37.6069 53.9456 37.372 53.3629 37.364M53.3629 56.155C51.8865 56.1531 50.4711 55.5658 49.4271 54.5218C48.3831 53.4778 47.7958 52.0624 47.7939 50.586V39.57C47.7939 38.093 48.3807 36.6765 49.4251 35.6321C50.4695 34.5877 51.886 34.001 53.3629 34.001C54.8399 34.001 56.2564 34.5877 57.3008 35.6321C58.3452 36.6765 58.9319 38.093 58.9319 39.57V50.586C58.9304 52.0625 58.3431 53.4781 57.2991 54.5221C56.255 55.5661 54.8394 56.1534 53.3629 56.155Z" fill="white"/>
<path d="M38.9298 56.146C38.6876 56.1471 38.4477 56.0998 38.224 56.0069C38.0003 55.9141 37.7975 55.7775 37.6273 55.6051C37.4571 55.4328 37.3231 55.2283 37.233 55.0035C37.1429 54.7786 37.0987 54.5381 37.1028 54.296V35.804C37.1091 35.3221 37.3059 34.8624 37.6501 34.5251C37.9943 34.1878 38.4579 34.0005 38.9398 34.004C39.3415 34.0007 39.7328 34.1315 40.0517 34.3756C40.3707 34.6198 40.5991 34.9634 40.7008 35.352C40.7139 35.3946 40.7243 35.438 40.7318 35.482L40.7438 35.561C40.7589 35.6576 40.7666 35.7552 40.7668 35.853V54.297C40.7704 54.5402 40.7254 54.7817 40.6343 55.0073C40.5433 55.2329 40.4081 55.438 40.2367 55.6106C40.0653 55.7833 39.8611 55.9199 39.6362 56.0125C39.4112 56.1051 39.1701 56.1519 38.9268 56.15" fill="white"/>
<path d="M128.233 74.776V70.0229C128.178 69.4615 128.345 68.9008 128.698 68.4609C128.845 68.3104 129.021 68.1915 129.215 68.1115C129.409 68.0315 129.618 67.9922 129.828 67.9959C130.345 67.9879 130.852 68.1452 131.274 68.445L131.557 66.667C131.12 66.2853 130.558 66.0781 129.978 66.0849C129.612 66.0641 129.248 66.1566 128.936 66.3498C128.624 66.543 128.379 66.8276 128.234 67.165V66.2859H126.29V74.778L128.233 74.776ZM119.74 68.2529C120.126 67.9392 120.614 67.7768 121.111 67.796C121.334 67.7914 121.557 67.8309 121.765 67.9122C121.973 67.9935 122.163 68.1151 122.324 68.27C122.681 68.6439 122.883 69.1397 122.889 69.657H119.134C119.134 69.3946 119.188 69.1351 119.292 68.8943C119.396 68.6535 119.549 68.4366 119.74 68.257M124.14 73.65L122.91 72.387C122.705 72.6692 122.435 72.8971 122.122 73.0507C121.809 73.2043 121.463 73.2789 121.115 73.268C120.862 73.2719 120.61 73.2255 120.375 73.1315C120.139 73.0374 119.925 72.8975 119.744 72.72C119.355 72.3383 119.131 71.819 119.121 71.2739H124.755C124.802 70.8757 124.824 70.4749 124.821 70.074C124.86 69.5334 124.788 68.9907 124.609 68.4791C124.43 67.9675 124.149 67.4978 123.782 67.0989C123.013 66.4168 122.012 66.0548 120.985 66.0872C119.957 66.1195 118.981 66.5438 118.257 67.2729C117.507 68.1837 117.127 69.3437 117.193 70.5219C117.125 71.7038 117.501 72.8683 118.248 73.7869C118.609 74.1841 119.053 74.4965 119.548 74.7019C120.044 74.9073 120.579 75.0005 121.115 74.9749C121.687 74.9999 122.258 74.893 122.782 74.6626C123.307 74.4322 123.771 74.0844 124.14 73.646M115.712 74.776V69.5579C115.754 69.084 115.701 68.6064 115.557 68.153C115.413 67.6995 115.18 67.279 114.873 66.916C114.586 66.638 114.246 66.421 113.874 66.2782C113.501 66.1353 113.103 66.0696 112.704 66.0849C112.278 66.0677 111.854 66.1489 111.465 66.3224C111.076 66.4958 110.733 66.7568 110.461 67.0849V66.285H108.516V74.777H110.461V69.8769C110.461 68.5809 111.037 67.9329 112.189 67.9329C113.241 67.9329 113.767 68.592 113.767 69.91V74.7789L115.712 74.776ZM106.934 74.5929L107.167 72.8479C106.764 73.0881 106.307 73.2197 105.838 73.2299C105.362 73.2299 105.124 72.9586 105.123 72.416V67.979H107.084V66.2789H105.123V62.7729L103.179 63.7039V66.2859H101.916V67.986H103.179V72.805C103.179 74.2563 103.838 74.9819 105.157 74.9819C105.772 75.0004 106.382 74.8693 106.935 74.5999M97.87 74.783V70.0299C97.8152 69.4685 97.9821 68.908 98.335 68.4679C98.4816 68.3174 98.6575 68.1985 98.8519 68.1185C99.0462 68.0385 99.2549 67.9992 99.465 68.0029C99.9825 67.9948 100.489 68.1521 100.911 68.452L101.193 66.674C100.756 66.2923 100.194 66.0851 99.614 66.0919C99.2474 66.0712 98.8834 66.1637 98.5712 66.3569C98.2591 66.5501 98.0139 66.8346 97.869 67.172V66.2859H95.924V74.778L97.87 74.783ZM89.144 72.972C89.0156 72.8795 88.912 72.7569 88.8423 72.6149C88.7725 72.473 88.7388 72.316 88.744 72.158C88.7356 71.9833 88.7763 71.8098 88.8615 71.6571C88.9467 71.5044 89.0729 71.3786 89.226 71.2939C89.6145 71.0895 90.0503 70.9918 90.489 71.011C91.073 70.9987 91.6523 71.118 92.184 71.36V72.4599C91.9433 72.7212 91.6502 72.9288 91.3238 73.069C90.9975 73.2093 90.6452 73.2791 90.29 73.2739C89.8853 73.3001 89.483 73.1948 89.143 72.9739M94.078 74.785V69.318C94.096 68.7367 93.9939 68.1579 93.778 67.618C93.6136 67.2028 93.3193 66.852 92.939 66.618C92.6148 66.4217 92.2613 66.2786 91.892 66.194C91.5061 66.1174 91.1133 66.0812 90.72 66.0859C89.5435 66.0519 88.3845 66.3766 87.397 67.0169L87.997 68.596C88.7342 68.0717 89.6174 67.7919 90.522 67.796C90.9714 67.7598 91.4184 67.89 91.778 68.1619C91.9256 68.3185 92.0381 68.5047 92.1081 68.7082C92.1781 68.9117 92.204 69.1277 92.184 69.3419V69.791C91.5634 69.4709 90.8708 69.3162 90.173 69.3419C89.3324 69.3179 88.5069 69.5689 87.822 70.0569C87.4994 70.2984 87.2418 70.616 87.0722 70.9815C86.9025 71.3469 86.8262 71.7488 86.85 72.151C86.8276 72.5405 86.893 72.93 87.0414 73.2909C87.1897 73.6518 87.4172 73.9747 87.707 74.236C88.3297 74.7478 89.1197 75.0114 89.925 74.976C90.3423 74.9951 90.759 74.9266 91.1483 74.7748C91.5375 74.6231 91.8907 74.3915 92.185 74.095V74.776L94.078 74.785ZM79.39 68.485V65.0449H82.324C82.5725 65.0212 82.8231 65.0563 83.0555 65.1473C83.2879 65.2383 83.4957 65.3828 83.662 65.569C83.9295 65.9068 84.0732 66.3261 84.069 66.757C84.0769 67.2003 83.9233 67.6314 83.637 67.97C83.4715 68.1494 83.2674 68.289 83.0402 68.3782C82.8129 68.4674 82.5684 68.5039 82.325 68.485H79.39ZM79.39 74.785V70.3849H82.224C82.7608 70.4231 83.2995 70.3446 83.8031 70.1547C84.3066 69.9648 84.763 69.6681 85.141 69.285C85.7699 68.5898 86.1216 67.6877 86.1292 66.7503C86.1367 65.8128 85.7997 64.9052 85.182 64.2C84.7919 63.8249 84.3262 63.5374 83.8161 63.3569C83.306 63.1763 82.7631 63.1068 82.224 63.153H77.388V74.776L79.39 74.785ZM68.655 78.0089L73.142 66.2929H71.18L69.186 71.511C69.0913 71.7604 69.0134 72.016 68.953 72.276C68.8881 72.0154 68.8049 71.7598 68.704 71.511L66.724 66.2859H64.763L67.954 74.645L66.642 78.0019L68.655 78.0089ZM64.175 72.442L62.314 71.8769C62.247 72.2335 62.0539 72.554 61.77 72.7799C61.4862 73.0057 61.1304 73.1218 60.768 73.1069C60.5074 73.1133 60.2494 73.0533 60.0183 72.9326C59.7872 72.8119 59.5906 72.6345 59.447 72.417C59.0924 71.8604 58.9207 71.2069 58.956 70.548C58.9203 69.8795 59.0952 69.2168 59.456 68.653C59.6079 68.4292 59.8141 68.2477 60.0553 68.1253C60.2964 68.0029 60.5647 67.9436 60.835 67.9529C61.1665 67.9466 61.4907 68.0515 61.7557 68.2508C62.0207 68.4502 62.2112 68.7326 62.297 69.053L64.142 68.438C63.9458 67.7124 63.4998 67.0795 62.8825 66.6509C62.2652 66.2222 61.5163 66.0253 60.768 66.095C60.2471 66.072 59.7277 66.1669 59.2486 66.3726C58.7695 66.5783 58.343 66.8895 58.001 67.283C57.3357 68.2405 56.9792 69.3785 56.9792 70.5444C56.9792 71.7104 57.3357 72.8484 58.001 73.806C58.3442 74.1975 58.7711 74.5068 59.2501 74.7111C59.7291 74.9153 60.2478 75.0093 60.768 74.986C61.5478 75.0477 62.3234 74.8237 62.9502 74.3559C63.5771 73.888 64.0124 73.2071 64.175 72.442ZM55.499 74.7859V69.568C55.5407 69.094 55.488 68.6164 55.344 68.163C55.2 67.7095 54.9675 67.289 54.66 66.9259C54.3735 66.6479 54.0335 66.4309 53.6607 66.2881C53.2879 66.1452 52.8899 66.0795 52.491 66.095C52.0654 66.0777 51.6415 66.159 51.2525 66.3325C50.8634 66.5059 50.5197 66.7669 50.248 67.095V66.2949H48.304V74.7869H50.248V69.887C50.248 68.591 50.8243 67.943 51.977 67.943C53.0283 67.943 53.5543 68.6019 53.555 69.9199V74.789L55.499 74.7859ZM41.754 68.263C42.1406 67.9497 42.6277 67.7873 43.125 67.806C43.3484 67.8014 43.5705 67.8409 43.7787 67.9222C43.9868 68.0035 44.1769 68.1251 44.338 68.2799C44.6958 68.6537 44.8978 69.1496 44.903 69.667H41.144C41.1444 69.4046 41.1983 69.1452 41.3025 68.9044C41.4067 68.6637 41.559 68.4468 41.75 68.2669M46.15 73.66L44.92 72.3969C44.7157 72.6795 44.4452 72.9076 44.1323 73.0612C43.8193 73.2148 43.4734 73.2892 43.125 73.278C42.8716 73.2818 42.6199 73.2353 42.3846 73.1412C42.1493 73.0472 41.9349 72.9074 41.754 72.7299C41.3652 72.348 41.1419 71.8288 41.132 71.284H46.765C46.8121 70.8857 46.8341 70.4849 46.831 70.084C46.8698 69.5434 46.7976 69.0007 46.619 68.4891C46.4403 67.9775 46.1589 67.5078 45.792 67.109C45.0231 66.4268 44.0222 66.0648 42.9949 66.0971C41.9675 66.1295 40.9915 66.5538 40.267 67.283C39.5773 68.2284 39.2049 69.3682 39.2032 70.5385C39.2016 71.7088 39.5709 72.8496 40.258 73.797C40.6185 74.1941 41.0625 74.5065 41.5579 74.7119C42.0534 74.9173 42.5882 75.0105 43.124 74.985C43.6963 75.0099 44.2667 74.903 44.7912 74.6726C45.3157 74.4422 45.7802 74.0944 46.149 73.6559M32.72 72.4259C32.3948 71.8418 32.2234 71.1846 32.2219 70.5161C32.2203 69.8476 32.3886 69.1896 32.711 68.604C32.872 68.3856 33.0846 68.2106 33.3297 68.0945C33.5749 67.9785 33.8451 67.925 34.116 67.9389C34.4315 67.9292 34.7442 68.0005 35.0243 68.146C35.3044 68.2914 35.5425 68.5063 35.716 68.77V72.2859C35.5464 72.5533 35.309 72.7711 35.028 72.917C34.7469 73.063 34.4323 73.132 34.116 73.117C33.8425 73.128 33.5706 73.0697 33.3258 72.9473C33.081 72.8248 32.8712 72.6424 32.716 72.417M36.746 76.9869C37.427 76.1205 37.7511 75.0265 37.652 73.929V66.2859H35.708V66.8009C35.4546 66.5583 35.1545 66.3698 34.826 66.2469C34.4975 66.124 34.1474 66.0692 33.797 66.0859C33.3086 66.0716 32.8237 66.1716 32.3808 66.3779C31.9379 66.5841 31.5493 66.891 31.246 67.2739C30.6117 68.2481 30.274 69.3855 30.274 70.548C30.274 71.7104 30.6117 72.8478 31.246 73.8219C31.5518 74.1958 31.9394 74.4944 32.379 74.6947C32.8185 74.895 33.2982 74.9915 33.781 74.977C34.1384 74.9962 34.4958 74.9378 34.8286 74.806C35.1614 74.6741 35.4617 74.4718 35.709 74.213V74.695C35.7238 74.9522 35.669 75.2087 35.5504 75.4375C35.4318 75.6662 35.2538 75.8588 35.035 75.9949C34.2795 76.3536 33.4533 76.5384 32.617 76.5359L33.647 78.0979C34.7809 78.114 35.8822 77.7186 36.747 76.985M22.657 70.437L23.957 66.9469C24.123 66.4803 24.2503 66.0869 24.339 65.7669C24.4391 66.1686 24.5667 66.5628 24.721 66.9469L26.001 70.437H22.657ZM29.637 74.7739L25.316 63.1409H23.339L19.001 74.7739H21.112L22.026 72.2309H26.626L27.54 74.7739H29.637Z" fill="white"/>
<path d="M1 104H149V129H1V104Z" fill="#0C8A44"/>
<path d="M28.6831 121.144C28.108 121.155 27.5385 121.03 27.0211 120.778C26.5575 120.552 26.159 120.211 25.8631 119.788C25.5727 119.367 25.3537 118.901 25.2151 118.408C25.0685 117.885 24.9958 117.344 24.9991 116.8C24.9991 116.384 25.0454 115.97 25.1371 115.564C25.2298 115.154 25.3771 114.759 25.5751 114.388C25.7658 114.025 26.0083 113.691 26.2951 113.398C26.5919 113.103 26.9449 112.87 27.3331 112.714C27.7614 112.539 28.2204 112.451 28.6831 112.456C29.3067 112.426 29.925 112.583 30.4591 112.906C30.9316 113.232 31.3286 113.656 31.6231 114.148L30.3391 114.88C30.216 114.648 30.0471 114.443 29.8426 114.278C29.638 114.113 29.4021 113.991 29.1492 113.92C28.8962 113.849 28.6314 113.83 28.3709 113.864C28.1103 113.898 27.8593 113.984 27.6331 114.118C27.3411 114.29 27.1023 114.539 26.9431 114.838C26.7844 115.135 26.6673 115.452 26.5951 115.78C26.5224 116.115 26.4862 116.457 26.4871 116.8C26.462 117.539 26.6539 118.269 27.0391 118.9C27.2127 119.175 27.4565 119.399 27.7455 119.549C28.0345 119.699 28.3581 119.769 28.6831 119.752C28.897 119.758 29.1098 119.721 29.3089 119.643C29.5079 119.564 29.689 119.446 29.8411 119.296C29.9909 119.152 30.1092 118.978 30.1887 118.786C30.2683 118.594 30.3072 118.388 30.3031 118.18V118.048H28.8271V116.692H31.7671V117.856C31.7931 118.297 31.7299 118.738 31.5815 119.153C31.433 119.569 31.2023 119.95 30.9031 120.274C30.6124 120.563 30.2654 120.79 29.8835 120.94C29.5016 121.089 29.093 121.159 28.6831 121.144ZM34.0831 121V112.6H37.8031C38.1851 112.565 38.5702 112.611 38.9331 112.735C39.2961 112.859 39.6287 113.058 39.9091 113.32C40.3546 113.826 40.5887 114.483 40.5631 115.156C40.5628 115.677 40.4083 116.187 40.1191 116.62C39.8199 117.079 39.3631 117.411 38.8351 117.556L40.5151 121H38.8951L37.2751 117.712H35.5231V121H34.0831ZM35.5231 116.344H37.8231C37.996 116.359 38.1701 116.337 38.3337 116.279C38.4973 116.221 38.6465 116.129 38.7711 116.008C38.9755 115.772 39.0827 115.468 39.0711 115.156C39.0809 114.848 38.9785 114.548 38.7831 114.31C38.6583 114.186 38.5075 114.09 38.3415 114.031C38.1755 113.972 37.9985 113.951 37.8231 113.968H35.5231V116.344ZM42.9031 121V112.6H48.3751V113.956H44.3431V115.984H46.8271V117.34H44.3431V119.64H48.6431V121H42.9031ZM50.8591 121V112.6H56.3311V113.956H52.2991V115.984H54.7831V117.34H52.2991V119.64H56.5991V121H50.8591ZM65.3431 121H64.0351L60.5551 115.7C60.4252 115.5 60.309 115.292 60.2071 115.076C60.232 115.283 60.244 115.492 60.2431 115.7V121H58.8151V112.6H60.2091L63.6091 117.82C63.7366 118.026 63.8527 118.238 63.9571 118.456C63.9334 118.245 63.9214 118.033 63.9211 117.82V112.6H65.3491L65.3431 121ZM76.6351 121V117.352H72.9631V121H71.5231V112.6H72.9631V116H76.6351V112.6H78.0631V121H76.6351ZM84.0871 121.144C83.6034 121.151 83.1229 121.065 82.6711 120.892C82.2768 120.743 81.9189 120.512 81.6211 120.214C81.338 119.922 81.1019 119.588 80.9211 119.224C80.7358 118.854 80.6013 118.46 80.5211 118.054C80.3611 117.226 80.3611 116.374 80.5211 115.546C80.6013 115.14 80.7358 114.746 80.9211 114.376C81.1019 114.012 81.338 113.678 81.6211 113.386C81.9189 113.088 82.2768 112.857 82.6711 112.708C83.1229 112.535 83.6034 112.45 84.0871 112.456C84.6792 112.443 85.2656 112.573 85.7971 112.834C86.2654 113.065 86.6632 113.417 86.9491 113.854C87.2249 114.282 87.4334 114.749 87.5671 115.24C87.8391 116.262 87.8391 117.338 87.5671 118.36C87.4334 118.851 87.2249 119.318 86.9491 119.746C86.6632 120.183 86.2654 120.535 85.7971 120.766C85.2656 121.027 84.6792 121.157 84.0871 121.144ZM84.0871 119.764C84.4464 119.771 84.8002 119.675 85.1071 119.488C85.3968 119.311 85.6348 119.06 85.7971 118.762C85.9605 118.464 86.0836 118.145 86.1631 117.814C86.2431 117.482 86.2834 117.142 86.2831 116.8C86.2848 116.447 86.2445 116.094 86.1631 115.75C86.0843 115.421 85.9611 115.104 85.7971 114.808C85.6352 114.515 85.3976 114.27 85.1091 114.1C84.7981 113.919 84.4429 113.828 84.0831 113.836C83.6077 113.822 83.1461 113.997 82.7991 114.322C82.4671 114.627 82.2209 115.014 82.0851 115.444C81.9502 115.883 81.8827 116.341 81.8851 116.8C81.8842 117.152 81.9244 117.502 82.0051 117.844C82.0833 118.175 82.2064 118.494 82.3711 118.792C82.532 119.085 82.7681 119.329 83.0551 119.5C83.3679 119.682 83.7253 119.774 84.0871 119.764ZM92.7991 121.144C92.0926 121.162 91.3981 120.959 90.8131 120.562C90.2572 120.174 89.8424 119.616 89.6311 118.972L90.9631 118.48C91.1262 118.856 91.3873 119.181 91.7191 119.422C92.0473 119.658 92.4429 119.782 92.8471 119.776C93.2208 119.796 93.5903 119.69 93.8971 119.476C94.0269 119.374 94.1301 119.242 94.198 119.092C94.2659 118.941 94.2965 118.777 94.2871 118.612C94.2879 118.463 94.2507 118.317 94.1791 118.186C94.1146 118.064 94.0316 117.953 93.9331 117.856C93.8094 117.747 93.6698 117.658 93.5191 117.592C93.3351 117.504 93.1791 117.434 93.0511 117.382C92.9231 117.33 92.7351 117.263 92.4871 117.182C92.1671 117.07 91.9211 116.982 91.7491 116.918C91.5219 116.828 91.3014 116.722 91.0891 116.6C90.8627 116.483 90.6562 116.331 90.4771 116.15C90.3199 115.97 90.1942 115.766 90.1051 115.544C89.9949 115.28 89.9397 114.996 89.9431 114.71C89.9385 114.403 90.0029 114.099 90.1317 113.82C90.2605 113.542 90.4503 113.295 90.6871 113.1C91.2303 112.706 91.8779 112.482 92.5484 112.455C93.2189 112.428 93.8824 112.6 94.4551 112.95C94.9062 113.264 95.2364 113.723 95.3911 114.25L94.0911 114.682C93.9769 114.485 93.825 114.313 93.644 114.174C93.4631 114.036 93.2567 113.935 93.0366 113.876C92.8165 113.818 92.5871 113.803 92.3614 113.833C92.1357 113.864 91.9181 113.938 91.7211 114.052C91.6171 114.128 91.5336 114.229 91.4781 114.345C91.4226 114.461 91.3969 114.589 91.4031 114.718C91.4048 114.817 91.4277 114.914 91.4701 115.003C91.5125 115.092 91.5736 115.171 91.6491 115.234C91.8028 115.379 91.9817 115.495 92.1771 115.576C92.3651 115.652 92.6431 115.75 93.0111 115.87L93.5571 116.07C93.6811 116.114 93.8551 116.188 94.0791 116.292C94.2615 116.374 94.4379 116.468 94.6071 116.574C94.7608 116.678 94.9071 116.792 95.0451 116.916C95.1955 117.044 95.3233 117.196 95.4231 117.366C95.5191 117.541 95.5955 117.726 95.6511 117.918C95.7182 118.142 95.7519 118.374 95.7511 118.608C95.7665 118.961 95.6991 119.312 95.5543 119.634C95.4094 119.956 95.1912 120.24 94.9171 120.462C94.3134 120.932 93.5634 121.173 92.7991 121.144ZM101.319 113.98V121H99.8791V113.98H97.4911V112.6H103.709V113.98H101.319ZM105.867 121V112.6H107.309V121H105.867ZM116.535 121H115.227L111.747 115.7C111.617 115.5 111.501 115.292 111.399 115.076C111.424 115.283 111.436 115.492 111.435 115.7V121H110.009V112.6H111.399L114.799 117.82C114.927 118.026 115.043 118.238 115.147 118.456C115.123 118.245 115.11 118.033 115.109 117.82V112.6H116.537L116.535 121ZM122.559 121.144C121.984 121.155 121.414 121.03 120.897 120.778C120.433 120.552 120.035 120.211 119.739 119.788C119.449 119.367 119.23 118.901 119.091 118.408C118.945 117.885 118.872 117.344 118.875 116.8C118.875 116.384 118.921 115.97 119.013 115.564C119.106 115.154 119.253 114.759 119.451 114.388C119.642 114.025 119.884 113.691 120.171 113.398C120.468 113.103 120.821 112.87 121.209 112.714C121.637 112.539 122.096 112.451 122.559 112.456C123.183 112.426 123.801 112.583 124.335 112.906C124.808 113.232 125.205 113.656 125.499 114.148L124.215 114.88C124.092 114.648 123.923 114.443 123.719 114.278C123.514 114.113 123.278 113.991 123.025 113.92C122.772 113.849 122.507 113.83 122.247 113.864C121.986 113.898 121.735 113.984 121.509 114.118C121.217 114.29 120.978 114.539 120.819 114.838C120.66 115.135 120.543 115.452 120.471 115.78C120.398 116.115 120.362 116.457 120.363 116.8C120.338 117.539 120.53 118.269 120.915 118.9C121.089 119.175 121.333 119.399 121.621 119.549C121.91 119.699 122.234 119.769 122.559 119.752C122.773 119.758 122.986 119.721 123.185 119.643C123.384 119.564 123.565 119.446 123.717 119.296C123.867 119.152 123.985 118.978 124.065 118.786C124.144 118.594 124.183 118.388 124.179 118.18V118.048H122.703V116.692H125.643V117.856C125.669 118.297 125.606 118.738 125.457 119.153C125.309 119.569 125.078 119.95 124.779 120.274C124.488 120.563 124.141 120.79 123.759 120.94C123.378 121.089 122.969 121.159 122.559 121.144Z" fill="white"/>
</g>
<defs>
<clipPath id="clip0_165_2">
<rect width="150" height="110" fill="white" transform="translate(0 20)"/>
</clipPath>
</defs>
</svg>
