<svg xmlns="http://www.w3.org/2000/svg" width="203.33" height="100" viewBox="0 0 203.33 100" preserveAspectRatio="xMinYMid" aria-hidden="true" focusable="false"><path d="M9.31,58.56h1.94c3.23,0,4.15-1.66,4.12-3.41,0-2-1.2-3.17-4.12-3.17H9.31Zm2.28-9.17c4.25,0,6.89,2.25,6.89,5.88A5.24,5.24,0,0,1,15,60.41c1.9,1.26,3.07,3.2,4.67,5.81.89,1.45,1.42,2.16,2.86,4.15h-3.6l-2.77-4.3c-2.77-4.31-4-4.8-5.57-4.8H9.31v9.1h-3v-21Zm24,18.49a8,8,0,1,0-8-8,8,8,0,0,0,8,8m0-18.76c6.92,0,11.28,4.92,11.28,10.76,0,5.67-4.24,10.77-11.35,10.77-6.86,0-11.19-5.08-11.19-10.77s4.46-10.76,11.26-10.76m27.47.28h3.63L59,59.3V70.37h-3V59.27L48.15,49.4h3.63l5.63,7.23Zm9.46,12.08h6.52l-3.39-7.59Zm13.62,8.89H83.11l-2.8-6.18H71.39l-2.65,6.18H65.66l9-21.1H76.8Zm7.6-2.7h9.48v2.7H90.77v-21h3ZM24.64,96.28a18.41,18.41,0,0,1-8,1.72C10.21,98,5.47,93.51,5.47,87.35s4.86-10.88,11.26-10.88c2.46,0,4.18.4,7.47,1.78v3a15.54,15.54,0,0,0-7.53-2.07A7.93,7.93,0,0,0,8.58,87v.23c0,4.68,3.5,8,8.49,8a15,15,0,0,0,4.55-.83V90.09h-4v-2.7h7.05Zm9.75-10.37h1.94c3.23,0,4.15-1.66,4.12-3.42,0-2-1.2-3.16-4.12-3.16H34.39Zm2.28-9.17c4.24,0,6.89,2.25,6.89,5.88a5.28,5.28,0,0,1-3.51,5.14C42,89,43.13,91,44.73,93.57c.89,1.45,1.41,2.16,2.86,4.15H44l-2.77-4.3c-2.77-4.31-4-4.8-5.57-4.8H34.39v9.1h-3v-21Zm27.44,2.71H55.22v6.34H63.8v2.7H55.22V95h9.17v2.7H52.2v-21H64.11Zm17.69,0H72.91v6.34h8.58v2.7H72.91V95h9.17v2.7H69.89v-21H81.8ZM107,97.72h-2.59l-14-16.15V97.72H87.56v-21H90L104.17,93V76.74H107Zm28.12.19h-.59l-6.89-17.17-7,17.17h-.58l-8.5-21.17h3l5.78,14.46,5.82-14.46h2.86l5.85,14.46,5.72-14.46h3Zm13.2-21.16h3v21h-3Zm27.84,4.67a13.75,13.75,0,0,0-7.23-2.19c-4.8,0-8.37,3.42-8.37,8s3.45,8,8.49,8a13.81,13.81,0,0,0,7.33-2.37v3.29a15.38,15.38,0,0,1-7.6,1.85c-7.88,0-11.32-6.06-11.32-10.46,0-6.4,4.82-11.07,11.51-11.07a18.25,18.25,0,0,1,7.19,1.72Zm24,16.3h-3V88.59H185.4v9.13h-3v-21h3v9.14h11.74V76.74h3ZM129.45,62.79A3.05,3.05,0,0,0,129,61a1.42,1.42,0,0,0-1.21-.6,2.21,2.21,0,0,0-1.31.43,3.3,3.3,0,0,0-1.06,1.39,6.59,6.59,0,0,0-.49,1.62,9,9,0,0,0-.16,1.64,3.27,3.27,0,0,0,.41,1.81,1.39,1.39,0,0,0,1.24.62,2,2,0,0,0,1.32-.47,3.4,3.4,0,0,0,.94-1.19,6.11,6.11,0,0,0,.54-1.61,8.28,8.28,0,0,0,.2-1.86m1.7.32a6.17,6.17,0,0,1-.33,2,4.84,4.84,0,0,1-1,1.73,4.67,4.67,0,0,1-1.55,1.24,4.48,4.48,0,0,1-2.1.46,3,3,0,0,1-2.25-.89,3.29,3.29,0,0,1-.86-2.41,5.67,5.67,0,0,1,.37-2.08,5.55,5.55,0,0,1,1-1.69,4.92,4.92,0,0,1,1.6-1.19,4.47,4.47,0,0,1,2-.45,3,3,0,0,1,2.33.91,3.4,3.4,0,0,1,.83,2.38m8.53-1.93a2.31,2.31,0,0,1-.06.52,1.54,1.54,0,0,1-.19.46,1.23,1.23,0,0,1-.33.35,1,1,0,0,1-.52.12.9.9,0,0,1-.67-.23.73.73,0,0,1-.23-.5,1.87,1.87,0,0,1,.12-.58l.27-.64h-.34a3.71,3.71,0,0,0-.55.22,3.54,3.54,0,0,0-.73.48,5.83,5.83,0,0,0-.88.84l-1.35,6h-1.56l1.22-5.42a2.37,2.37,0,0,1,.12-.6,4.11,4.11,0,0,0,.08-.6.64.64,0,0,0-.45-.78.6.6,0,0,0-.35,0,1.84,1.84,0,0,0-.47.06l-.44.11.13-.54a9.34,9.34,0,0,1,1.15-.43,3.17,3.17,0,0,1,.87-.15,1.16,1.16,0,0,1,.95.37,1.68,1.68,0,0,1,.29,1.09h0a17.25,17.25,0,0,1,1.5-1.21,1.86,1.86,0,0,1,1.07-.34,1.81,1.81,0,0,1,.52.07.89.89,0,0,1,.43.22,1.22,1.22,0,0,1,.27.41,2.1,2.1,0,0,1,.08.66m6.9,1.65a3.17,3.17,0,0,0-.41-1.78,1.41,1.41,0,0,0-1.22-.6,2.21,2.21,0,0,0-1.31.43,3.29,3.29,0,0,0-1,1.39,6.09,6.09,0,0,0-.5,1.62,9,9,0,0,0-.16,1.64,3.19,3.19,0,0,0,.42,1.81,1.39,1.39,0,0,0,1.24.62,2.05,2.05,0,0,0,1.32-.47,3.59,3.59,0,0,0,.93-1.19,6.52,6.52,0,0,0,.55-1.61,9,9,0,0,0,.19-1.86m1.71.32a6.17,6.17,0,0,1-.33,2,5.36,5.36,0,0,1-1,1.73,4.91,4.91,0,0,1-1.55,1.24,4.48,4.48,0,0,1-2.1.46,3,3,0,0,1-2.25-.89,3.29,3.29,0,0,1-.86-2.41,5.91,5.91,0,0,1,.36-2.08,6.13,6.13,0,0,1,1-1.69,4.77,4.77,0,0,1,1.54-1.17,4.61,4.61,0,0,1,2-.45,3,3,0,0,1,2.33.91,3.35,3.35,0,0,1,.84,2.38m6.44,3.94h-.05c-.25.21-.5.4-.73.57a4.17,4.17,0,0,1-1.42.73,3,3,0,0,1-.85.09,1.6,1.6,0,0,1-1.24-.47,1.65,1.65,0,0,1-.45-1.21,3.84,3.84,0,0,1,0-.48,7.43,7.43,0,0,1,.16-.82l.64-2.65c.06-.24.11-.46.14-.65a2.48,2.48,0,0,0,.06-.54.63.63,0,0,0-.79-.78,1.77,1.77,0,0,0-.46.07l-.45.11.13-.54a9.4,9.4,0,0,1,1.15-.44,3.16,3.16,0,0,1,.8-.16,1.36,1.36,0,0,1,1,.32,1.2,1.2,0,0,1,.31.89,2.81,2.81,0,0,1,0,.41,2.51,2.51,0,0,1-.1.52l-.74,3.09a3.25,3.25,0,0,1-.14.65,3.75,3.75,0,0,0-.05.47,1.48,1.48,0,0,0,.24.89.94.94,0,0,0,.77.32,2.45,2.45,0,0,0,1.09-.28,4.47,4.47,0,0,0,1.13-.85l1.46-6.29,1.46-.1.1.12-1.24,5.38c-.06.23-.1.46-.15.69a4.13,4.13,0,0,0-.07.49.81.81,0,0,0,.21.65,1.08,1.08,0,0,0,.68.17h.45a2.46,2.46,0,0,0,.45-.11l-.13.54c-.38.16-.77.3-1.16.42a2.7,2.7,0,0,1-.85.14,1.22,1.22,0,0,1-1-.39,1.3,1.3,0,0,1-.34-.92m11-5.35a1.59,1.59,0,0,0-.07-.48,1.15,1.15,0,0,0-.27-.45,1.23,1.23,0,0,0-.46-.32,1.81,1.81,0,0,0-.73-.12,2.1,2.1,0,0,0-1.21.39,3.78,3.78,0,0,0-1,1.07,5.47,5.47,0,0,0-.69,1.54,6.2,6.2,0,0,0-.27,1.81,5.5,5.5,0,0,0,.08.91,2.26,2.26,0,0,0,.24.72,1.21,1.21,0,0,0,.47.48,1.4,1.4,0,0,0,.75.17,2.36,2.36,0,0,0,1.16-.33,5.71,5.71,0,0,0,1.09-.87Zm-1.12,5.35h-.05l-.48.38a5.5,5.5,0,0,1-.64.43,3.6,3.6,0,0,1-.77.36,2.57,2.57,0,0,1-.87.15,2.19,2.19,0,0,1-1.87-.86,3.79,3.79,0,0,1-.65-2.36,5.51,5.51,0,0,1,.38-2,5.93,5.93,0,0,1,1-1.74,4.87,4.87,0,0,1,1.52-1.18,4.07,4.07,0,0,1,3-.29,3.41,3.41,0,0,1,.86.36l1.53-.39.1.12-1.4,6.59a11.33,11.33,0,0,1-.82,2.53,5,5,0,0,1-1.15,1.63,3.88,3.88,0,0,1-1.47.88A5.71,5.71,0,0,1,161,72a4.85,4.85,0,0,1-1.14-.11,2.15,2.15,0,0,1-.68-.29.86.86,0,0,1-.34-.39,1.07,1.07,0,0,1-.09-.43.91.91,0,0,1,.23-.63.77.77,0,0,1,.61-.25.79.79,0,0,1,.53.18,2.11,2.11,0,0,1,.35.38,5.21,5.21,0,0,1,.28.52c.09.2.15.35.2.45h.25a2.89,2.89,0,0,0,1-.21,2.6,2.6,0,0,0,1-.67,5.22,5.22,0,0,0,.83-1.3,8.47,8.47,0,0,0,.6-2.09m13,.12-.13.54c-.5.2-.89.34-1.17.44a2.63,2.63,0,0,1-.84.13,1.35,1.35,0,0,1-1-.34,1.19,1.19,0,0,1-.33-.86,2.67,2.67,0,0,1,0-.4,4.52,4.52,0,0,1,.11-.53l.82-3.11q.09-.36.15-.66a3.59,3.59,0,0,0,0-.46,1.36,1.36,0,0,0-.27-.89.89.89,0,0,0-.78-.32,2.3,2.3,0,0,0-1.14.34,4.36,4.36,0,0,0-1.18,1l-1.42,6.14H168.9l2.5-10.77a1.36,1.36,0,0,1,.07-.33,1.41,1.41,0,0,0,0-.29.82.82,0,0,0-.1-.46.64.64,0,0,0-.29-.25,1.34,1.34,0,0,0-.44-.1l-.56-.06.12-.5,3.12-.19.09.13-1.34,5.78h0a9.58,9.58,0,0,1,1.53-1,3.14,3.14,0,0,1,1.53-.36,1.65,1.65,0,0,1,1.25.46,1.67,1.67,0,0,1,.45,1.22v.53a5,5,0,0,1-.15.77l-.7,2.68a3.68,3.68,0,0,1-.14.61,3.35,3.35,0,0,0-.08.54.81.81,0,0,0,.21.65,1.13,1.13,0,0,0,.69.17,3.38,3.38,0,0,0,.45,0,3.45,3.45,0,0,0,.46-.12m11.58-4.62a3.09,3.09,0,0,0-.42-1.78,1.38,1.38,0,0,0-1.21-.6,2.21,2.21,0,0,0-1.31.43,3.28,3.28,0,0,0-1.05,1.39,6.09,6.09,0,0,0-.5,1.62,9,9,0,0,0-.16,1.64,3.27,3.27,0,0,0,.41,1.81,1.41,1.41,0,0,0,1.25.62,2,2,0,0,0,1.31-.47,3.4,3.4,0,0,0,.94-1.19,6.52,6.52,0,0,0,.55-1.61,9,9,0,0,0,.19-1.86m1.71.32a6.18,6.18,0,0,1-.34,2,5.26,5.26,0,0,1-1,1.73A5,5,0,0,1,188,68.05a4.54,4.54,0,0,1-2.11.46,3,3,0,0,1-2.24-.89,3.35,3.35,0,0,1-.87-2.41,5.67,5.67,0,0,1,.37-2.08,5.55,5.55,0,0,1,1-1.69,5,5,0,0,1,1.56-1.17,4.47,4.47,0,0,1,2-.45,3,3,0,0,1,2.33.91,3.35,3.35,0,0,1,.84,2.38m4.68-2.25-1.47,6.9a5.64,5.64,0,0,1-1.66,3,3.82,3.82,0,0,1-2.6,1.18,1.72,1.72,0,0,1-1.08-.28.9.9,0,0,1-.35-.71,1,1,0,0,1,.22-.63.74.74,0,0,1,.63-.28.89.89,0,0,1,.45.12,1,1,0,0,1,.35.29,3.28,3.28,0,0,1,.27.38l.25.42a1.44,1.44,0,0,0,1.1-.87,8.85,8.85,0,0,0,.79-2.34L194,60.86h-1.63l.17-.77h1.61l.12-.56a6.14,6.14,0,0,1,.64-1.75,5.6,5.6,0,0,1,1-1.32,4,4,0,0,1,1.23-.84,3.32,3.32,0,0,1,1.32-.31,1.68,1.68,0,0,1,1.09.29.84.84,0,0,1,.34.7,1.13,1.13,0,0,1-.2.64.76.76,0,0,1-.64.27.79.79,0,0,1-.45-.11,1,1,0,0,1-.35-.3,2.7,2.7,0,0,1-.27-.39c-.07-.12-.15-.26-.25-.41a1.35,1.35,0,0,0-1,.76,8.48,8.48,0,0,0-.8,2.45l-.19.88h2.11l-.18.77ZM3.35,19.24s2.3,16.63,40.18,17.62C80,37.81,121.76,2.64,159.88,2c42.61-.7,40.26,35.46,40.26,35.46S198.22,3.72,161.62,5.09C127.21,6.39,89.05,35.17,56.92,39,7.91,44.7,3.35,19.24,3.35,19.24m173.9,14.84a4.17,4.17,0,0,0-1.33-.67c1.13-1,3.36-3.59,1.76-8.26-1.75-5.08-4.7-5.84-6.31-5.84h-.14a2.94,2.94,0,0,0,.56-1.15,4.67,4.67,0,0,0-.16-2,.34.34,0,0,0-.31-.23,3.89,3.89,0,0,0-1.9.36,4.34,4.34,0,0,0-1,1.05A4.69,4.69,0,0,0,167.25,15c-1.24-1.39-3.31-2.09-6.16-2.09h0c-2.74,0-4.8.7-6.12,2.06a5,5,0,0,0-1.31,2.39,2.92,2.92,0,0,0-.91-.84,4.65,4.65,0,0,0-1.94-.43.35.35,0,0,0-.31.22,3.78,3.78,0,0,0-.21,1.94,3.9,3.9,0,0,0,.58,1.13,4.85,4.85,0,0,0-2.51.48c-1.61.78-2.84,2.4-3.68,4.83-1,2.83-1,5.15-.1,6.88a4.83,4.83,0,0,0,1.74,1.85,3.3,3.3,0,0,0-1.07.55,4.65,4.65,0,0,0-1.09,1.67.33.33,0,0,0,.1.37,4,4,0,0,0,1.79.86,4.39,4.39,0,0,0,1.35-.17c-.5,1.43-1.07,4.78,3.14,7.57,2.82,1.86,5.22,2.53,7.12,2a4,4,0,0,0,1.75-1,3,3,0,0,0,.25,1.11A4.47,4.47,0,0,0,161,47.87a.36.36,0,0,0,.2.06h.18a4.15,4.15,0,0,0,1.31-1.42,3.68,3.68,0,0,0,.22-1.18A4.4,4.4,0,0,0,165,46.42c1.79.4,3.86-.22,6.16-1.84s3.71-3.45,4-5.34a4.91,4.91,0,0,0-.23-2.49,3.48,3.48,0,0,0,1.32.16,4.4,4.4,0,0,0,1.83-.79.35.35,0,0,0,.13-.36A4.1,4.1,0,0,0,177.25,34.08Zm-1.09,2.15a3.92,3.92,0,0,1-1.78-.42.33.33,0,0,0-.4.09.32.32,0,0,0,0,.41,4.12,4.12,0,0,1,.52,2.83c-.29,1.7-1.55,3.35-3.74,4.89s-4,2.08-5.61,1.74a3.87,3.87,0,0,1-2.36-1.62.34.34,0,0,0-.4-.15.32.32,0,0,0-.23.35,5,5,0,0,1-.14,1.84,2.89,2.89,0,0,1-.87,1,3.5,3.5,0,0,1-.9-1.09,3.59,3.59,0,0,1-.13-1.81.34.34,0,0,0-.2-.36h-.14a.3.3,0,0,0-.26.13l-.05.07a3.29,3.29,0,0,1-2,1.52c-1.69.47-4-.2-6.57-1.92-4.93-3.26-2.72-7.18-2.62-7.35a.35.35,0,0,0,0-.39.33.33,0,0,0-.37-.1,5.39,5.39,0,0,1-1.78.33,2.81,2.81,0,0,1-1.22-.55,3.69,3.69,0,0,1,.81-1.15,3.65,3.65,0,0,1,1.71-.62.34.34,0,0,0,0-.66,4,4,0,0,1-2.28-2c-.82-1.55-.78-3.68.14-6.32,2.09-6.06,6.07-4.78,6.24-4.72A.34.34,0,0,0,152,20a.33.33,0,0,0-.06-.33,5.43,5.43,0,0,1-1-1.58,2.82,2.82,0,0,1,.12-1.29,3.42,3.42,0,0,1,1.37.34,3.3,3.3,0,0,1,1.13,1.38.32.32,0,0,0,.38.19.35.35,0,0,0,.27-.34,4.38,4.38,0,0,1,1.26-2.92c1.18-1.22,3.08-1.84,5.62-1.84h0c2.64,0,4.54.62,5.65,1.86a4.08,4.08,0,0,1,1,2.91.32.32,0,0,0,.23.35.31.31,0,0,0,.39-.14,7.09,7.09,0,0,1,1.38-1.66,3.13,3.13,0,0,1,1.28-.27,3.53,3.53,0,0,1,.08,1.41,3.34,3.34,0,0,1-1,1.48A.36.36,0,0,0,170,20a.33.33,0,0,0,.39.15c.18-.05,4.32-1.27,6.57,5.28,1.9,5.51-1.86,7.8-2,7.89a.34.34,0,0,0-.17.34.33.33,0,0,0,.26.28,5,5,0,0,1,1.71.71,3,3,0,0,1,.66,1.12A3.52,3.52,0,0,1,176.16,36.23Zm-2-2.59a4,4,0,0,0-1.68-.51s3.39-2,1.76-6.7c-1.94-5.63-5.81-4.59-5.81-4.59a3.11,3.11,0,0,0,.88-1.35,3.32,3.32,0,0,0-.12-1.47,3.11,3.11,0,0,0-1.38.26c-.5.29-1,1.59-1,1.59s.48-4.17-5.69-4.15c-6,0-5.83,4.13-5.83,4.13a3.06,3.06,0,0,0-1-1.25,3.55,3.55,0,0,0-1.44-.31,3.12,3.12,0,0,0-.16,1.39,4.39,4.39,0,0,0,.86,1.38s-3.58-1.25-5.39,4C146,32,150,33.18,150,33.18a3.6,3.6,0,0,0-1.5.62,4.48,4.48,0,0,0-.88,1.06,4,4,0,0,0,1.39.69,4.24,4.24,0,0,0,1.5-.23s-2.06,3.4,2.2,6.21c5.65,3.74,7.33.22,7.33.22h0a3.33,3.33,0,0,0,.13,1.63,3.51,3.51,0,0,0,1,1.1,3.13,3.13,0,0,0,1-1,4.44,4.44,0,0,0,.13-1.62s2,3.43,6.84,0S171.91,35,171.91,35a3.38,3.38,0,0,0,1.59.37,5.3,5.3,0,0,0,1.34-.4A3.34,3.34,0,0,0,174.14,33.64Zm-16.8-14.15c.78-.26,3.08.09,3.78.06s3.28-.44,3.88.09a2.6,2.6,0,0,1,.63,2.91,9.53,9.53,0,0,1-1.5,2.7,8.89,8.89,0,0,0-3-.75,8.6,8.6,0,0,0-3.13.9,9,9,0,0,1-1.71-3.4C156.15,20.64,156.58,19.75,157.34,19.49Zm-6,13c-1.37-.35-2-1-2-1.86s1.14-2.86,1.35-3.52.71-3.24,1.42-3.62a2.58,2.58,0,0,1,2.94.4,9.69,9.69,0,0,1,2,2.33,9.07,9.07,0,0,0-1.74,2.59,8.68,8.68,0,0,0-.23,3.25,8.88,8.88,0,0,1-3.76.42Zm8.49,7.74c-.73,1.2-1.6,1.66-2.37,1.4s-2.41-1.92-3-2.32-2.89-1.63-3.05-2.41a2.61,2.61,0,0,1,1.25-2.7A9.82,9.82,0,0,1,155.49,33a8.94,8.94,0,0,0,2,2.41,8.35,8.35,0,0,0,3,1.17,8.83,8.83,0,0,1-.68,3.69Zm1.6-6.18a1.29,1.29,0,0,1,0,.48.86.86,0,0,1-.29.31,1,1,0,0,1-.3-.33,1,1,0,0,1,0-.49h0s-.5,1.06-2.21-.06a1.4,1.4,0,0,1-.69-1.87l0,0a1.32,1.32,0,0,1-.48.09.87.87,0,0,1-.37-.19.91.91,0,0,1,.24-.37.86.86,0,0,1,.46-.17s-1.2-.32-.58-2.14c.55-1.58,1.63-1.2,1.63-1.2a1.29,1.29,0,0,1-.26-.42.86.86,0,0,1,.05-.42,1.13,1.13,0,0,1,.44.1.93.93,0,0,1,.31.37s0-1.24,1.76-1.24,1.72,1.25,1.72,1.25a1.87,1.87,0,0,1,.36-.43,1,1,0,0,1,.42-.08,1.09,1.09,0,0,1,0,.44.87.87,0,0,1-.27.41s1.12-.36,1.71,1.34a1.63,1.63,0,0,1-.53,2,1.27,1.27,0,0,1,.45.19.91.91,0,0,1,.21.37.77.77,0,0,1-.89.06s.68,1-.81,2-2.12,0-2.12,0Zm9.41,3.18c-.48.66-2.55,1.73-3.1,2.15s-2.41,2.28-3.21,2.2a2.56,2.56,0,0,1-2.2-2,9.88,9.88,0,0,1-.37-3.06,8.93,8.93,0,0,0,2.9-1.17,8.74,8.74,0,0,0,2-2.56,9,9,0,0,1,3.33,1.75c.92,1.05,1.1,2,.63,2.68Zm-.73-4.72a9.7,9.7,0,0,1-3-.73,9,9,0,0,0-.08-3.11,8.49,8.49,0,0,0-1.69-2.79,8.82,8.82,0,0,1,2.79-2.51c1.32-.5,2.29-.33,2.74.34s.73,3,.93,3.66,1.3,3.05.95,3.77a2.6,2.6,0,0,1-2.66,1.36ZM119.55,63.33a5.26,5.26,0,0,0-.08-.89,2.05,2.05,0,0,0-.27-.75,1.46,1.46,0,0,0-.52-.5,1.61,1.61,0,0,0-.83-.19,1.54,1.54,0,0,0-.56.1,5.28,5.28,0,0,0-.53.27,4.29,4.29,0,0,0-.48.36c-.15.15-.29.27-.42.38l-1.11,5a.85.85,0,0,0,.15.37,1.22,1.22,0,0,0,.32.36,1.77,1.77,0,0,0,1.17.39,2.19,2.19,0,0,0,1.24-.39,3.4,3.4,0,0,0,1-1,5.42,5.42,0,0,0,.69-1.6,7.44,7.44,0,0,0,.23-1.82m1.71,0a5.56,5.56,0,0,1-.4,2.13,6.08,6.08,0,0,1-1.06,1.76,5.36,5.36,0,0,1-1.53,1.18,3.92,3.92,0,0,1-1.81.43,5.91,5.91,0,0,1-1.26-.12,3.89,3.89,0,0,1-.94-.33,2.85,2.85,0,0,1-.65-.49,3.9,3.9,0,0,1-.46-.61l2.16-9.47a.51.51,0,0,1,.07-.33,1.41,1.41,0,0,0,0-.29,1,1,0,0,0-.1-.46.71.71,0,0,0-.29-.25,1.65,1.65,0,0,0-.44-.1l-.55-.06.12-.5,3.1-.18.08.12L116,61.41h0a5.49,5.49,0,0,1,1.32-.92,2.56,2.56,0,0,1,1.12-.26,2.48,2.48,0,0,1,2,.86,3.55,3.55,0,0,1,.72,2.33" fill="#c1002b"/></svg>