<svg width="3333" height="1038" viewBox="0 0 3333 1038" fill="none" xmlns="http://www.w3.org/2000/svg">
<path d="M1318.41 422.478C1292.95 447.694 1280.34 479.833 1280.34 518.647C1280.34 560.428 1292.95 594.297 1318.16 620.008C1343.38 645.719 1376.26 658.575 1417.05 658.575C1430.65 658.328 1444 656.103 1456.86 652.394V590.589C1445.48 594.05 1433.86 596.028 1422 596.522C1401.72 596.522 1385.66 589.847 1373.54 576.25C1361.43 562.653 1355.25 544.111 1355.25 520.872C1355.25 499.117 1361.18 481.317 1373.29 467.225C1384.42 453.628 1401.23 445.964 1418.78 446.211C1431.64 446.211 1444.49 448.189 1456.86 451.65V389.597C1443.26 386.136 1429.17 384.405 1415.07 384.653C1376.26 384.653 1343.88 397.261 1318.41 422.478ZM1583.43 384.653C1548.08 384.653 1520.64 396.272 1500.86 419.758C1481.08 443.244 1471.19 475.878 1471.44 517.906C1471.44 563.395 1481.33 598.253 1500.86 622.233C1520.39 646.214 1549.07 658.328 1586.4 658.328C1622.49 658.328 1650.43 646.214 1669.96 622.233C1689.49 598.006 1699.38 564.383 1699.38 520.872C1699.38 477.361 1689.49 443.739 1669.47 420.253C1649.94 396.52 1621.26 384.653 1583.43 384.653ZM1613.84 583.172C1607.41 593.556 1595.79 599.736 1583.68 599.242C1572.06 599.489 1561.18 593.308 1555.74 583.172C1549.32 572.542 1546.1 551.033 1546.1 518.647C1546.1 468.461 1558.71 443.244 1584.18 443.244C1611.12 443.244 1624.72 468.708 1624.72 519.389C1624.47 551.28 1620.76 572.294 1613.84 583.172ZM1888.51 392.069L1874.91 450.414C1871.45 465.495 1867.99 480.822 1865.02 496.397L1857.36 536.942C1849.94 496.645 1840.05 448.189 1827.44 392.317H1738.69L1705.31 652.394H1771.82L1789.86 473.158L1835.35 652.394H1882.82L1926.08 473.158L1944.87 651.9H2014.34L1978.99 392.069H1888.51ZM2206.93 392.069L2193.33 450.414C2189.87 465.495 2186.41 480.822 2183.44 496.397L2175.78 536.942C2168.36 496.645 2158.47 448.189 2145.86 392.317H2057.11L2023.74 652.147H2090.24L2108.29 472.911L2153.77 652.147H2201.24L2244.75 473.158L2263.54 651.9H2333.01L2297.66 392.069H2206.93ZM2422.75 549.055H2485.3V494.914H2422.75V447.2H2494.69V392.069H2352.54V652.147H2495.19V596.522H2422.75V549.055ZM2692.97 508.017C2712.74 476.62 2704.83 435.333 2675.17 413.331C2656.13 399.239 2629.93 392.069 2596.8 392.069H2514.97V652.147H2585.18V533.48H2586.41L2643.28 651.9H2717.44L2661.32 534.716C2674.43 529.278 2685.55 519.884 2692.97 508.017ZM2585.18 503.814V442.008C2601.74 442.503 2613.86 445.222 2621.03 450.414C2628.19 455.606 2631.9 464.258 2631.9 476.125C2631.9 494.172 2616.33 503.319 2585.18 503.814ZM2745.63 422.478C2720.16 447.694 2707.31 479.833 2707.31 518.647C2707.31 560.428 2719.91 594.297 2745.13 619.761C2770.35 645.472 2803.48 658.328 2844.02 658.328C2857.62 658.08 2870.97 656.103 2884.07 652.394V590.589C2872.7 594.05 2861.08 596.028 2849.21 596.522C2828.94 596.522 2812.87 589.847 2800.51 576.25C2788.39 562.653 2782.21 544.111 2782.21 520.872C2782.21 499.117 2788.15 481.317 2800.26 467.225C2811.39 453.628 2828.2 445.964 2845.75 446.211C2858.61 446.211 2871.46 448.189 2883.82 451.65V389.597C2870.23 386.136 2856.13 384.405 2842.04 384.653C2803.23 384.653 2771.09 397.261 2745.63 422.478ZM2973.56 596.275V549.055H3036.11V494.914H2973.56V447.2H3045.51V392.069H2903.35V652.147H3046V596.522H2973.56V596.275Z" fill="black"/>
<path fill-rule="evenodd" clip-rule="evenodd" d="M374.269 287H1134.97C1182.93 287 1221.99 326.061 1221.99 374.022V664.261C1221.99 712.222 1182.93 751.283 1134.97 751.283H862.039L899.369 843.003L734.472 751.283H374.022C326.061 751.283 287 712.222 287 664.261V374.022C287 326.061 326.061 287 374.269 287Z" fill="#7F54B3"/>
<path d="M334.219 365.864C340.153 358.695 348.806 354.245 358.2 353.997C377.483 352.761 388.608 361.908 391.575 381.439C403.442 461.045 416.297 528.783 429.894 584.408L513.703 425.197C521.367 410.858 530.761 403.195 542.381 402.453C559.192 401.217 569.575 411.847 573.778 434.592C581.689 479.092 593.803 522.85 609.872 565.125C620.008 468.214 636.819 398.003 660.306 354.739C665.003 344.85 674.644 338.422 685.522 337.928C694.175 337.186 702.828 339.906 709.503 345.592C716.425 350.783 720.628 358.942 721.122 367.595C721.617 374.022 720.38 380.45 717.414 385.889C702.58 413.578 690.219 459.561 680.578 523.839C671.183 585.892 667.475 634.595 669.947 669.453C670.936 678.106 669.205 686.758 665.497 694.422C661.789 702.333 653.878 707.772 645.225 708.267C635.089 709.008 625.2 704.311 615.064 694.175C579.464 657.833 551.281 603.692 530.514 531.75C506.039 580.7 487.497 617.536 475.383 641.764C452.886 685.028 433.603 707.031 417.781 708.267C407.397 709.008 398.497 700.356 391.328 682.061C371.797 632.122 350.783 535.458 328.286 392.07C326.308 382.675 328.533 373.281 334.219 365.864Z" fill="white"/>
<path d="M915.936 425.939C903.08 402.947 880.83 386.63 854.872 381.686C847.949 380.203 841.027 379.461 834.105 379.461C797.516 379.461 767.602 398.497 744.363 436.569C724.585 468.955 714.202 506.286 714.697 544.111C714.697 573.53 720.877 598.747 732.991 619.761C745.847 642.753 768.097 659.069 794.055 664.014C800.977 665.497 807.899 666.239 814.822 666.239C851.658 666.239 881.572 647.203 904.563 609.13C924.341 576.497 934.724 539.167 934.23 500.847C934.23 471.428 928.049 446.458 915.936 425.939ZM867.727 531.997C862.536 556.967 852.894 575.755 838.555 588.611C827.43 598.747 817.047 602.703 807.652 600.972C798.258 599.242 790.841 590.836 785.155 576.25C780.952 565.125 778.48 553.505 778.48 541.391C778.48 531.997 779.469 522.603 781.199 513.455C784.908 497.139 791.583 481.811 801.472 467.966C814.08 449.425 827.43 441.514 841.274 444.48C850.669 446.458 858.085 454.616 863.772 469.203C867.974 480.328 870.447 491.947 870.447 503.814C870.447 513.208 869.705 522.603 867.727 531.997Z" fill="white"/>
<path d="M1155.24 425.939C1142.39 402.947 1120.14 386.63 1094.18 381.686C1087.26 380.203 1080.34 379.461 1073.41 379.461C1036.83 379.461 1006.91 398.497 983.672 436.569C963.895 468.955 953.511 506.286 954.006 544.111C954.006 573.53 960.186 598.747 972.3 619.761C985.156 642.753 1007.41 659.069 1033.36 664.014C1040.29 665.497 1047.21 666.239 1054.13 666.239C1090.97 666.239 1120.88 647.203 1143.87 609.13C1163.65 576.497 1174.03 539.167 1173.54 500.847C1173.54 471.428 1167.36 446.458 1155.24 425.939ZM1107.04 531.997C1101.84 556.967 1092.2 575.755 1077.86 588.611C1066.74 598.747 1056.36 602.703 1046.96 600.972C1037.57 599.242 1030.15 590.836 1024.46 576.25C1020.26 565.125 1017.79 553.505 1017.79 541.391C1017.79 531.997 1018.78 522.603 1020.51 513.455C1024.22 497.139 1030.89 481.811 1040.78 467.966C1053.39 449.425 1066.74 441.514 1080.58 444.48C1089.98 446.458 1097.39 454.616 1103.08 469.203C1107.28 480.328 1109.76 491.947 1109.76 503.814C1109.76 513.208 1109.01 522.603 1107.04 531.997Z" fill="white"/>
</svg>
