<svg xmlns="http://www.w3.org/2000/svg" width="150" height="88"><g data-name="Pfad 1662" fill="#fff"><path d="M149.5 87.5H.5V.5h149v87z"/><path d="M1 1v86h148V1H1M0 0h150v88H0V0z" fill="#d7d7d7"/></g><path data-name="Pfad 1665" d="M59.684 74.144a3.814 3.814 0 01-1.416-.252 2.959 2.959 0 01-1.05-.678 3.931 3.931 0 01-.7-.99 4.607 4.607 0 01-.4-1.17 6.612 6.612 0 010-2.508 4.607 4.607 0 01.4-1.17 3.931 3.931 0 01.7-.99 2.959 2.959 0 011.05-.678 3.814 3.814 0 011.416-.252 3.7 3.7 0 011.71.378 2.92 2.92 0 011.154 1.02 4.964 4.964 0 01.618 1.386 6.067 6.067 0 010 3.12 4.964 4.964 0 01-.618 1.386 2.92 2.92 0 01-1.152 1.02 3.7 3.7 0 01-1.712.378zm0-1.38a1.892 1.892 0 001.02-.276 1.937 1.937 0 00.69-.726 3.846 3.846 0 00.366-.948 4.313 4.313 0 00.12-1.014 4.469 4.469 0 00-.12-1.05 3.745 3.745 0 00-.366-.942 1.874 1.874 0 00-.684-.708 1.949 1.949 0 00-1.026-.264 1.8 1.8 0 00-1.284.486 2.578 2.578 0 00-.714 1.122 4.68 4.68 0 00-.078 2.4 3.728 3.728 0 00.366.948 1.874 1.874 0 00.684.708 1.949 1.949 0 001.026.264zm7.116-3.672V74h-1.4v-4.908h-.892v-1.224h.888v-.96a1.283 1.283 0 011.452-1.452 2.811 2.811 0 011.3.288V66.9a2.328 2.328 0 00-.876-.2.419.419 0 00-.468.48v.7h1.344v1.212zm7.908-2.3a.8.8 0 01-.588.24.84.84 0 01-.84-.84.79.79 0 01.246-.588.82.82 0 01.594-.24.82.82 0 01.828.828.84.84 0 01-.24.596zm-3.672 2.3V74h-1.4v-4.908h-.888v-1.224h.888v-.96a1.283 1.283 0 011.452-1.452 2.811 2.811 0 011.3.288V66.9a2.328 2.328 0 00-.876-.2.419.419 0 00-.468.48v.7h1.344v1.212zM73.412 74v-6.132h1.4V74zm5.652.144a2.508 2.508 0 01-2-.852 3.475 3.475 0 01-.736-2.352 3.5 3.5 0 01.738-2.358 2.5 2.5 0 012-.858 2.3 2.3 0 012.436 1.692l-1.334.444a1.072 1.072 0 00-1.056-.792 1.157 1.157 0 00-1 .5 2.312 2.312 0 00-.36 1.368 2.29 2.29 0 00.354 1.35 1.112 1.112 0 00.954.5 1.09 1.09 0 001.12-.886l1.344.408a2.327 2.327 0 01-2.46 1.836zm5.268-7.356a.8.8 0 01-.588.24.84.84 0 01-.84-.84.79.79 0 01.244-.588.82.82 0 01.594-.24.82.82 0 01.828.828.84.84 0 01-.238.6zM83.036 74v-6.132h1.4V74zm6.712 0v-.492a2.16 2.16 0 01-1.632.636 2.363 2.363 0 01-1.6-.534 1.883 1.883 0 01-.618-1.506 1.759 1.759 0 01.7-1.512 2.788 2.788 0 011.7-.516 2.932 2.932 0 011.45.324v-.324a1.094 1.094 0 00-.294-.852 1.325 1.325 0 00-.906-.264 3.125 3.125 0 00-1.824.576l-.436-1.136a4.19 4.19 0 012.4-.672 4.09 4.09 0 01.846.078 2.568 2.568 0 01.756.306 1.5 1.5 0 01.606.72 3.049 3.049 0 01.216 1.224V74zm-1.368-1.092a1.825 1.825 0 001.368-.588v-.792a2.811 2.811 0 00-1.224-.252 1.791 1.791 0 00-.912.2.675.675 0 00-.348.624.7.7 0 00.288.588 1.361 1.361 0 00.824.22zM92.848 74v-8l1.4-.66V74z" fill="#003d8f"/><g data-name="Gruppe 2722" fill="#003d8f"><path data-name="Pfad 7" d="M107.347 36.158a5.613 5.613 0 01-1.12-.113 5.8 5.8 0 01-3.827-2.733l-.021-.038a1.719 1.719 0 01.634-2.267 1.656 1.656 0 01.852-.236 1.687 1.687 0 011.467.862c.017.03.037.063.057.094l.179.243.239.242a2.342 2.342 0 001.094.529 2.406 2.406 0 001.885-.431 2.281 2.281 0 00.947-1.7 2.359 2.359 0 00-.656-1.83s-5.065-5.261-5.292-5.5a6.254 6.254 0 01-.611-.726 4.976 4.976 0 01-.827-3.389 5.49 5.49 0 01.713-2.342s.232-.393.3-.492a6.419 6.419 0 011.159-1.18 5.947 5.947 0 01.972-.584 5.539 5.539 0 017.225 2.23 1.642 1.642 0 01.175 1.273 1.677 1.677 0 01-.8 1.034 1.609 1.609 0 01-.821.223 1.673 1.673 0 01-1.458-.857 2.2 2.2 0 00-1.474-1.042 2.283 2.283 0 00-1.787.4 2.179 2.179 0 00-.846 1.577 2.213 2.213 0 00.6 1.709l5.178 5.34a5.735 5.735 0 01-4.137 9.714"/><path data-name="Pfad 8" d="M90.96 17.363a2.209 2.209 0 00-2.207 2.206v11.016a2.184 2.184 0 002.207 2.207 2.21 2.21 0 002.207-2.207V19.57a2.235 2.235 0 00-2.207-2.206m0 18.791a5.576 5.576 0 01-5.57-5.569V19.57a5.569 5.569 0 0111.138 0v11.016a5.576 5.576 0 01-5.569 5.569"/><path data-name="Pfad 9" d="M69.172 14.954l-.015-.032a1.722 1.722 0 00-1.521-.912 1.579 1.579 0 00-.339.035 1.646 1.646 0 00-1.328 1.636v.383l9.247 19.168a1.732 1.732 0 001.493.922 1.516 1.516 0 00.385-.049 1.649 1.649 0 001.31-1.633v-.363l-9.231-19.157m9.259 16.823v-16.1a1.681 1.681 0 10-3.362 0v9.117zm-9.121-6.415v9.111a1.681 1.681 0 01-3.362 0V18.385z"/><path data-name="Pfad 10" d="M53.364 17.363a2.209 2.209 0 00-2.207 2.206v11.016a2.207 2.207 0 004.413 0V19.57a2.237 2.237 0 00-2.206-2.206m0 18.791a5.576 5.576 0 01-5.569-5.569V19.57a5.569 5.569 0 0111.138 0v11.016a5.575 5.575 0 01-5.569 5.569"/><path data-name="Pfad 11" d="M38.93 36.146a1.819 1.819 0 01-1.827-1.85V15.804a1.824 1.824 0 011.837-1.8 1.806 1.806 0 011.761 1.348 1.055 1.055 0 01.031.13l.012.079a1.912 1.912 0 01.023.292v18.444a1.826 1.826 0 01-1.84 1.853"/><path data-name="Pfad 12" d="M128.233 54.776v-4.753a2.158 2.158 0 01.465-1.562 1.539 1.539 0 011.13-.465 2.432 2.432 0 011.446.449l.283-1.778a2.358 2.358 0 00-1.579-.582 1.787 1.787 0 00-1.744 1.08v-.879h-1.944v8.492zm-8.493-6.523a2.05 2.05 0 011.371-.457 1.7 1.7 0 011.213.474 2.039 2.039 0 01.565 1.387h-3.755a1.924 1.924 0 01.606-1.4m4.4 5.393l-1.23-1.263a2.134 2.134 0 01-1.795.881 1.914 1.914 0 01-1.371-.548 2.078 2.078 0 01-.623-1.446h5.634a9.63 9.63 0 00.066-1.2 3.974 3.974 0 00-1.039-2.975 4.024 4.024 0 00-5.525.174 4.694 4.694 0 00-1.064 3.249 4.746 4.746 0 001.055 3.265 3.639 3.639 0 002.867 1.188 3.74 3.74 0 003.025-1.329m-8.427 1.13v-5.218a3.6 3.6 0 00-.839-2.642 2.952 2.952 0 00-2.169-.831 2.767 2.767 0 00-2.243 1v-.8h-1.945v8.492h1.945v-4.9q0-1.944 1.728-1.944 1.578 0 1.578 1.977v4.869zm-8.778-.183l.233-1.745a2.71 2.71 0 01-1.329.382q-.714 0-.715-.814v-4.437h1.961v-1.7h-1.961v-3.506l-1.944.931v2.582h-1.263v1.7h1.263v4.819q0 2.177 1.978 2.177a3.8 3.8 0 001.778-.382m-9.065.183V50.03a2.161 2.161 0 01.465-1.562 1.539 1.539 0 011.13-.465 2.43 2.43 0 011.446.449l.282-1.778a2.358 2.358 0 00-1.579-.582 1.789 1.789 0 00-1.745 1.08v-.886h-1.946v8.492zm-8.726-1.811a.964.964 0 01-.4-.814.936.936 0 01.482-.864 2.48 2.48 0 011.263-.283 3.9 3.9 0 011.7.349v1.1a2.525 2.525 0 01-1.894.814 1.883 1.883 0 01-1.147-.3m4.935 1.811v-5.467a4.224 4.224 0 00-.3-1.7 2.068 2.068 0 00-.839-1 3.555 3.555 0 00-1.047-.424 5.676 5.676 0 00-1.172-.108 5.8 5.8 0 00-3.323.931l.6 1.579a4.324 4.324 0 012.525-.8 1.838 1.838 0 011.256.366 1.515 1.515 0 01.406 1.18v.449a4.06 4.06 0 00-2.011-.449 3.861 3.861 0 00-2.351.715 2.436 2.436 0 00-.972 2.094 2.606 2.606 0 00.857 2.085 3.267 3.267 0 002.218.74 2.991 2.991 0 002.26-.881v.681zm-14.688-6.3v-3.44h2.928a1.592 1.592 0 011.338.524 1.884 1.884 0 01.407 1.188 1.828 1.828 0 01-.432 1.213 1.614 1.614 0 01-1.312.515zm0 6.3v-4.4h2.828a3.727 3.727 0 002.917-1.1 3.824 3.824 0 00.041-5.085 3.8 3.8 0 00-2.958-1.047h-4.836v11.623zm-10.735 3.224l4.487-11.716h-1.962l-1.994 5.218a5.953 5.953 0 00-.233.765 5.7 5.7 0 00-.249-.765l-1.986-5.225h-1.961l3.191 8.359-1.312 3.357zm-4.48-5.567l-1.861-.565a1.51 1.51 0 01-1.546 1.23 1.538 1.538 0 01-1.321-.69 3.164 3.164 0 01-.491-1.869 3.2 3.2 0 01.5-1.895 1.6 1.6 0 011.379-.7 1.484 1.484 0 011.462 1.1l1.845-.615a3.189 3.189 0 00-3.374-2.343 3.464 3.464 0 00-2.767 1.188 5.716 5.716 0 000 6.523 3.473 3.473 0 002.767 1.18 3.223 3.223 0 003.407-2.543m-8.676 2.343v-5.218a3.6 3.6 0 00-.839-2.642 2.951 2.951 0 00-2.169-.831 2.767 2.767 0 00-2.243 1v-.8H48.31v8.492h1.944v-4.9q0-1.944 1.729-1.944 1.577 0 1.578 1.977v4.869zM41.76 48.263a2.054 2.054 0 011.371-.457 1.7 1.7 0 011.213.474 2.034 2.034 0 01.565 1.387h-3.765a1.927 1.927 0 01.606-1.4m4.4 5.393l-1.23-1.263a2.13 2.13 0 01-1.795.881 1.917 1.917 0 01-1.371-.548 2.08 2.08 0 01-.622-1.446h5.633a9.566 9.566 0 00.066-1.2 3.974 3.974 0 00-1.039-2.975 4.024 4.024 0 00-5.525.174 5.537 5.537 0 00-.009 6.514 3.637 3.637 0 002.866 1.188 3.74 3.74 0 003.025-1.329m-13.429-1.23a3.946 3.946 0 01-.009-3.822 1.64 1.64 0 011.405-.665 1.847 1.847 0 011.6.831v3.516a1.794 1.794 0 01-1.6.831 1.62 1.62 0 01-1.4-.7m4.03 4.57a4.32 4.32 0 00.906-3.058v-7.643h-1.944v.515a2.585 2.585 0 00-1.911-.715 3.137 3.137 0 00-2.551 1.188 6 6 0 000 6.548 3.151 3.151 0 002.535 1.155 2.483 2.483 0 001.928-.764v.482a1.434 1.434 0 01-.674 1.3 5.6 5.6 0 01-2.418.541l1.03 1.562a4.689 4.689 0 003.1-1.113m-14.09-6.548l1.3-3.49q.249-.7.382-1.18a9.028 9.028 0 00.382 1.18l1.28 3.49zm6.98 4.337l-4.321-11.633h-1.977l-4.338 11.633h2.111l.914-2.543h4.6l.914 2.543z"/></g></svg>