<svg xmlns="http://www.w3.org/2000/svg" xmlns:xlink="http://www.w3.org/1999/xlink" viewBox="0 0 940 788"><defs><linearGradient id="a" x1="470" y1="787.25" x2="470" y2="91.25" gradientUnits="userSpaceOnUse"><stop offset="0" stop-color="#a4286a"/><stop offset="0.37" stop-color="#a12868"/><stop offset="0.59" stop-color="#992763"/><stop offset="0.77" stop-color="#8b275b"/><stop offset="0.93" stop-color="#77264e"/><stop offset="1" stop-color="#6c2548"/></linearGradient><linearGradient id="b" x1="470" y1="0.75" x2="470" y2="80.75" gradientUnits="userSpaceOnUse"><stop offset="0" stop-color="#a4286a"/><stop offset="0.26" stop-color="#9b2865"/><stop offset="0.68" stop-color="#832656"/><stop offset="1" stop-color="#6c2548"/></linearGradient></defs><polygon points="940 621.52 0 621.52 47.24 550.99 0 478.12 940 478.12 892.76 550.99 940 621.52" fill="#4f8a00"/><polygon points="193.95 474 88.03 516.03 105.83 638.79 215.75 643.62 193.95 474" fill="#9fda4f"/><polygon points="752.93 475.96 851.29 515.42 831.17 637.6 721.25 642.42 752.93 475.96" fill="#9fda4f"/><path d="M749.08,778.59H254.61c-31.05,0-63.61-50.24-63.61-81.29l3-593H749.08Z" fill="#98d5eb"/><rect x="470" y="104.34" width="277.88" height="674.25" fill="#54b9dd"/><polygon points="418.23 350.37 374.02 350.37 374.02 560.26 418.23 571.38 418.23 350.37" fill="#7b1e50"/><rect x="417.35" y="350.37" width="221.01" height="221.01" fill="#a4286a"/><rect x="433.93" y="366.94" width="187.86" height="187.86" fill="none" stroke="#c87ea6" stroke-miterlimit="10" stroke-width="7.47"/><g opacity="0.8"><path d="M500.25,514.15v13.59c8.41-.33,15-3.13,20.56-8.73,5.74-5.78,10.68-14.79,15.54-28.35l36-96.53H554.94l-29,80.6-14.43-45.2H495.55l21.18,54.4a22.37,22.37,0,0,1,0,16.28C514.57,505.73,510.75,512.22,500.25,514.15Z" fill="#fff"/></g><rect x="301.63" y="130" width="221.01" height="221.01" fill="#77b227"/><polygon points="506.07 333.31 318.21 334.44 318.21 147.7 506.07 146.58 506.07 333.31" fill="none" stroke="#a1d968" stroke-miterlimit="10" stroke-width="7.5"/><polygon points="566.31 143.34 522.1 130 522.1 351.01 566.31 351.01 566.31 143.34" fill="#4f8a0a"/><g opacity="0.9"><circle cx="431.21" cy="219.33" r="46.22" fill="none" stroke="#fff" stroke-miterlimit="10" stroke-width="12.16"/><line x1="388.53" y1="262.93" x2="346.47" y2="302.29" fill="none" stroke="#fff" stroke-linecap="round" stroke-miterlimit="10" stroke-width="16.65"/></g><path d="M740,109.25v660H260a60.18,60.18,0,0,1-60-60v-600H740m18-18H182v618a78.09,78.09,0,0,0,78,78H758v-696Z" fill="url(#a)"/><rect x="85" y="515.43" width="770" height="143.41" rx="4.71" fill="#77b227"/><text transform="translate(100.11 610.63)" font-size="60" fill="#fff" font-family="Merriweather-BoldItalic, Merriweather" font-weight="700" font-style="italic">SEO for beginners certified</text><g opacity="0.8"><path d="M693.27,725.25V707.58h6.32V699.9h-6.32v-9.26h-9.76v9.26h-5v7.68h5v16.67a16,16,0,0,0,13.58,16.27l2.91-7.85A7.37,7.37,0,0,1,693.27,725.25Z" fill="#fff"/><path d="M640.28,722.45V709.17a12.24,12.24,0,0,0-.08-1.39c-.84-10.73-16.08-10.71-27.89-6.59l3.41,6.87c7.69-3.65,12.29-2.71,13.9-.91l.12.14v0c.82,1.11.63,2.85.63,4.23-10,0-20.74,1.33-20.74,12.35,0,8.37,10.49,13.76,21.46,5.78l1.63,3.92h9.4C641.29,729,640.28,725,640.28,722.45Zm-9.83-.07c-7.73,8.65-14.81.51-7.56-3a25.59,25.59,0,0,1,7.56-.76Z" fill="#fff"/><path d="M657.16,708.45c0-3.27,5.24-4.8,13.5-1l2.86-6.94c-11.12-3.36-26.31-3.66-26.41,8-.05,5.57,3.53,8.58,8.68,10.49,3.56,1.32,8.71,2,8.7,4.85,0,3.71-8,4.28-15.27-.71l-2.94,7.53c9.91,4.93,28.34,5.07,28.24-7.3C674.43,711.09,657.16,713.19,657.16,708.45Z" fill="#fff"/><path d="M565.62,682l-14.15,39.29-6.77-21.22H534.62l11.28,29a10.57,10.57,0,0,1,0,7.67c-1.26,3.24-3.36,6-8.47,6.69V752c10,0,15.34-6.12,20.14-19.54L576.39,682Z" fill="#fff"/><path d="M588.66,698.74c-12.2,0-17,8.62-17,17.74,0,9.47,4.78,17.23,17,17.23s17.08-8.7,17.06-17.23C605.69,706.08,600.4,698.74,588.66,698.74Zm0,27.5c-4.94,0-7.37-3.68-7.37-9.76s2.62-10.39,7.37-10.4,7.32,4.32,7.32,10.4S593.61,726.24,588.66,726.24Z" fill="#fff"/></g><path d="M208,.75H732a26,26,0,0,1,26,26v54a0,0,0,0,1,0,0H182a0,0,0,0,1,0,0v-54A26,26,0,0,1,208,.75Z" fill="url(#b)"/><path d="M223.2,38.41,232,21.48h6.6L226.22,44.2V58.6h-6.09V44.41L207.81,21.48h6.6Z" fill="#fff"/><path d="M273.72,40q0,9.06-4.53,14.09c-3,3.35-7.3,5-12.84,5s-9.91-1.67-12.91-5-4.51-8-4.51-14.18,1.51-10.84,4.54-14.12,7.33-4.93,12.93-4.93,9.79,1.67,12.8,5S273.72,33.93,273.72,40Zm-28.34,0q0,6.85,2.77,10.4c1.84,2.36,4.58,3.54,8.2,3.54s6.33-1.17,8.16-3.51,2.76-5.81,2.76-10.43-.91-8-2.73-10.36S260,26.1,256.4,26.1s-6.38,1.18-8.24,3.53S245.38,35.43,245.38,40Z" fill="#fff"/><path d="M303.33,58.6l-3.7-10.31h-14.2L281.8,58.6h-6.4l13.89-37.27h6.6L309.78,58.6ZM298,43.06,294.55,33c-.26-.67-.61-1.74-1.06-3.19s-.75-2.53-.92-3.2a58.16,58.16,0,0,1-2,6.83l-3.35,9.67Z" fill="#fff"/><path d="M336.64,48.52a9.34,9.34,0,0,1-3.58,7.77q-3.57,2.82-9.88,2.82a23.44,23.44,0,0,1-10.3-2V51.41a27.25,27.25,0,0,0,5.39,1.88,22.79,22.79,0,0,0,5.32.69c2.4,0,4.18-.46,5.32-1.37a4.48,4.48,0,0,0,1.71-3.68,4.6,4.6,0,0,0-1.57-3.53q-1.57-1.45-6.5-3.43c-3.39-1.37-5.77-2.94-7.16-4.7a9.92,9.92,0,0,1-2.08-6.35,8.9,8.9,0,0,1,3.3-7.31q3.3-2.67,8.86-2.67a26,26,0,0,1,10.61,2.34l-1.93,4.95a23.11,23.11,0,0,0-8.83-2.08,6.79,6.79,0,0,0-4.47,1.28,4.21,4.21,0,0,0-1.52,3.39,4.85,4.85,0,0,0,.6,2.48,6.35,6.35,0,0,0,2,1.94,34.09,34.09,0,0,0,5,2.41,27.49,27.49,0,0,1,6,3.18,9.31,9.31,0,0,1,2.79,3.32A9.91,9.91,0,0,1,336.64,48.52Z" fill="#fff"/><path d="M356.06,58.6H350V26.68H339.07v-5.2H367v5.2H356.06Z" fill="#fff"/><path d="M406.06,48.52a9.34,9.34,0,0,1-3.58,7.77c-2.38,1.88-5.68,2.82-9.87,2.82a23.45,23.45,0,0,1-10.31-2V51.41a27.25,27.25,0,0,0,5.39,1.88A22.79,22.79,0,0,0,393,54q3.62,0,5.32-1.37a4.49,4.49,0,0,0,1.72-3.68,4.61,4.61,0,0,0-1.58-3.53c-1.05-1-3.21-2.11-6.5-3.43s-5.77-2.94-7.16-4.7a9.92,9.92,0,0,1-2.08-6.35,8.9,8.9,0,0,1,3.3-7.31q3.3-2.67,8.86-2.67a26,26,0,0,1,10.62,2.34l-1.93,4.95a23.2,23.2,0,0,0-8.84-2.08,6.83,6.83,0,0,0-4.47,1.28,4.24,4.24,0,0,0-1.52,3.39,4.75,4.75,0,0,0,.61,2.48,6.2,6.2,0,0,0,2,1.94,34.09,34.09,0,0,0,5,2.41,27.25,27.25,0,0,1,6,3.18,9.31,9.31,0,0,1,2.79,3.32A9.91,9.91,0,0,1,406.06,48.52Z" fill="#fff"/><path d="M433.73,58.6h-21V21.48h21v5.13H418.8v10.1h14v5.08h-14V53.44h14.93Z" fill="#fff"/><path d="M474.19,40q0,9.06-4.53,14.09c-3,3.35-7.3,5-12.84,5s-9.91-1.67-12.91-5-4.51-8-4.51-14.18,1.51-10.84,4.53-14.12,7.34-4.93,12.94-4.93,9.79,1.67,12.8,5S474.19,33.93,474.19,40Zm-28.34,0q0,6.85,2.77,10.4c1.84,2.36,4.58,3.54,8.2,3.54s6.33-1.17,8.16-3.51,2.76-5.81,2.76-10.43-.91-8-2.73-10.36-4.53-3.53-8.14-3.53-6.38,1.18-8.24,3.53S445.85,35.43,445.85,40Z" fill="#fff"/><path d="M515.58,58.6l-3.71-10.31H497.68L494.05,58.6h-6.4l13.89-37.27h6.6L522,58.6Zm-5.31-15.54L506.79,33c-.25-.67-.6-1.74-1.05-3.19s-.76-2.53-.93-3.2a56.13,56.13,0,0,1-2,6.83l-3.35,9.67Z" fill="#fff"/><path d="M542.2,26.15A10,10,0,0,0,534,29.86q-3,3.7-3,10.23,0,6.82,2.88,10.33t8.34,3.51a22.14,22.14,0,0,0,4.57-.47c1.47-.32,3-.72,4.6-1.21v5.21a27.91,27.91,0,0,1-9.91,1.65q-8.15,0-12.51-4.94T524.58,40a22.86,22.86,0,0,1,2.12-10.13,15.1,15.1,0,0,1,6.13-6.65,18.58,18.58,0,0,1,9.42-2.32,23.37,23.37,0,0,1,10.51,2.39l-2.18,5.05a33.44,33.44,0,0,0-4-1.56A14.32,14.32,0,0,0,542.2,26.15Z" fill="#fff"/><path d="M581.87,58.6l-3.7-10.31H564L560.34,58.6h-6.4l13.89-37.27h6.6L588.32,58.6Zm-5.3-15.54L573.09,33c-.25-.67-.61-1.74-1.05-3.19s-.76-2.53-.93-3.2a58.16,58.16,0,0,1-2,6.83l-3.35,9.67Z" fill="#fff"/><path d="M622.89,39.68q0,9.2-5.1,14.06t-14.7,4.86H592.7V21.48h11.48q8.87,0,13.79,4.77T622.89,39.68Zm-6.4.21q0-13.33-12.46-13.33h-5.26V53.5h4.32Q616.5,53.5,616.49,39.89Z" fill="#fff"/><path d="M651.34,58.6h-21V21.48h21v5.13H636.41v10.1h14v5.08h-14V53.44h14.93Z" fill="#fff"/><path d="M674.89,58.6l-10.76-31h-.21q.44,6.9.44,12.95V58.6h-5.51V21.48h8.55L677.71,51h.15l10.62-29.53h8.58V58.6h-5.84V40.24c0-1.84,0-4.25.14-7.21s.17-4.76.24-5.38h-.2l-11.15,31Z" fill="#fff"/><path d="M716.8,38.41l8.79-16.93h6.6L719.82,44.2V58.6h-6.09V44.41L701.42,21.48H708Z" fill="#fff"/></svg>